<svg width="184" height="37" viewBox="0 0 184 37" fill="none" xmlns="http://www.w3.org/2000/svg"><path fill-rule="evenodd" clip-rule="evenodd" d="M0 0H3.43029V3.108H4.72617V0H30.4914V23.162H14.0741C15.8303 14.3438 26.3539 12.1533 26.6038 14.134C26.7858 15.577 25.2317 16.872 22.6399 17.945C20.0481 19.018 17.685 18.574 17.685 18.574L17.0371 19.721C17.0371 19.721 19.8957 20.128 22.6399 19.203C26.1845 18.0082 28.2046 15.466 27.1374 13.505C25.8877 11.2087 14.2575 13.601 12.3935 23.162H9.29989V4.514H8.004V24.42H9.29989H12.2103C12.2055 24.4692 12.2009 24.5185 12.1966 24.568C11.2857 35.002 22.2969 37 22.2969 37H0V0ZM13.921 24.42C13.4702 35.7073 25.2698 37 25.2698 37H30.4914V24.42H13.921ZM4.72617 4.514H3.43029V24.42H4.72617V4.514Z" fill="#111"/><path d="M13.9833 6.39218V21.6711H11.7996V10.817C11.7996 10.5113 11.8071 10.195 11.8221 9.86805 11.8371 9.53396 11.8709 9.18211 11.9234 8.81249 11.7959 9.13236 11.6608 9.4309 11.5182 9.70811 11.3757 9.98533 11.2293 10.227 11.0792 10.4331L2.60013 21.0207C2.49507 21.1842 2.36 21.3334 2.19491 21.4685 2.02982 21.6035 1.83847 21.6711 1.62086 21.6711H0V6.39218H2.18366V17.2569C2.18366 17.5626 2.17615 17.8824 2.16114 18.2165 2.14614 18.5435 2.11237 18.8953 2.05984 19.2721 2.18741 18.9451 2.32248 18.643 2.46505 18.3658 2.61513 18.0886 2.76146 17.8433 2.90404 17.6301L11.3832 7.04257C11.4882 6.87909 11.6233 6.72982 11.7884 6.59476 11.9535 6.45971 12.1448 6.39218 12.3624 6.39218H13.9833zM28.7291 21.6711H26.5454V8.02349H21.9422C21.8371 9.98533 21.6945 11.6877 21.5145 13.1307 21.3419 14.5736 21.128 15.8069 20.8729 16.8304 20.6252 17.854 20.3401 18.6892 20.0174 19.336 19.7022 19.9758 19.3533 20.4805 18.9706 20.8501 18.5954 21.2197 18.1902 21.472 17.755 21.6071 17.3197 21.7421 16.8582 21.8097 16.3705 21.8097 15.9653 21.8097 15.6539 21.7741 15.4362 21.703 15.2186 21.6391 15.1098 21.5396 15.1098 21.4045V20.0931H15.8977C16.1979 20.0931 16.4943 20.0398 16.787 19.9331 17.0796 19.8194 17.361 19.5955 17.6311 19.2614 17.9013 18.9273 18.1564 18.4511 18.3966 17.8327 18.6367 17.2143 18.8543 16.3968 19.0494 15.3804 19.2445 14.3639 19.4133 13.1236 19.5559 11.6593 19.6985 10.1879 19.8073 8.43221 19.8823 6.39218H28.7291V21.6711zM36.3787 20.0291C37.0016 20.0291 37.5343 19.9616 37.9771 19.8265 38.4273 19.6915 38.7913 19.5066 39.0689 19.2721 39.3541 19.0304 39.5604 18.7425 39.688 18.4084 39.8231 18.0673 39.8906 17.6941 39.8906 17.2889 39.8906 16.8624 39.8231 16.4857 39.688 16.1587 39.5604 15.8246 39.3541 15.5439 39.0689 15.3164 38.7913 15.0818 38.4311 14.9077 37.9883 14.794 37.5456 14.6731 37.0128 14.6127 36.39 14.6127H33.2496V20.0291H36.3787zM36.39 12.9707C37.373 12.9707 38.221 13.0738 38.9338 13.2799 39.6467 13.479 40.232 13.7633 40.6898 14.1329 41.155 14.4954 41.4964 14.929 41.7141 15.4337 41.9392 15.9384 42.0517 16.4893 42.0517 17.0863 42.0517 17.79 41.9242 18.4262 41.669 18.9949 41.4214 19.5564 41.0537 20.0362 40.5659 20.4342 40.0857 20.8323 39.4929 21.138 38.7875 21.3512 38.0821 21.5644 37.2792 21.6711 36.3787 21.6711H31.0772V6.39218H33.2496V12.9707H36.39zM59.631 20.0504V8.02349H55.2108C55.1208 9.76498 54.9932 11.2932 54.8281 12.6082 54.663 13.9232 54.4679 15.0641 54.2428 16.0308 54.0177 16.9975 53.7663 17.8078 53.4886 18.4618 53.211 19.1086 52.9108 19.6381 52.5882 20.0504H59.631zM63.3617 20.0504V24.7738C63.3617 24.9586 63.2979 25.1078 63.1703 25.2216 63.0427 25.3353 62.8739 25.3922 62.6638 25.3922H61.3694V21.6711H50.382V24.7738C50.382 24.9586 50.3145 25.1078 50.1794 25.2216 50.0518 25.3353 49.8867 25.3922 49.6841 25.3922H48.3784V20.0504H50.0218C50.2544 19.9438 50.4871 19.7732 50.7197 19.5386 50.9523 19.297 51.1737 18.9558 51.3838 18.5151 51.6014 18.0673 51.804 17.5057 51.9916 16.8304 52.1792 16.1552 52.348 15.3306 52.4981 14.3568 52.6557 13.3759 52.7908 12.2315 52.9033 10.9236 53.0159 9.61571 53.1022 8.10523 53.1622 6.39218H61.8259V20.0504H63.3617zM76.7039 19.9864L76.6926 21.6711H66.0215V6.39218H76.6926V8.0768H68.2052V13.152H75.7672V14.7726H68.2052V19.9864H76.7039zM91.6533 20.0291C92.2762 20.0291 92.8089 19.9616 93.2517 19.8265 93.7019 19.6915 94.0658 19.5066 94.3435 19.2721 94.6286 19.0304 94.835 18.7425 94.9626 18.4084 95.0977 18.0673 95.1652 17.6941 95.1652 17.2889 95.1652 16.8624 95.0977 16.4857 94.9626 16.1587 94.835 15.8246 94.6286 15.5439 94.3435 15.3164 94.0658 15.0818 93.7057 14.9077 93.2629 14.794 92.8202 14.6731 92.2874 14.6127 91.6646 14.6127H88.5242V20.0291H91.6533zM91.6646 12.9707C92.6476 12.9707 93.4956 13.0738 94.2084 13.2799 94.9213 13.479 95.5066 13.7633 95.9644 14.1329 96.4296 14.4954 96.771 14.929 96.9886 15.4337 97.2138 15.9384 97.3263 16.4893 97.3263 17.0863 97.3263 17.79 97.1988 18.4262 96.9436 18.9949 96.696 19.5564 96.3283 20.0362 95.8405 20.4342 95.3603 20.8323 94.7675 21.138 94.0621 21.3512 93.3567 21.5644 92.5538 21.6711 91.6533 21.6711H86.3518V6.39218H96.7748V8.02349H88.5242V12.9707H91.6646zM115.637 14.037C115.637 15.1814 115.446 16.2334 115.063 17.193 114.681 18.1454 114.14 18.9664 113.443 19.6559 112.745 20.3454 111.904 20.8821 110.921 21.2659 109.946 21.6426 108.865 21.831 107.68 21.831 106.494 21.831 105.413 21.6426 104.438 21.2659 103.462 20.8821 102.626 20.3454 101.928 19.6559 101.23 18.9664 100.69 18.1454 100.307 17.193 99.9242 16.2334 99.7328 15.1814 99.7328 14.037 99.7328 12.8925 99.9242 11.8441 100.307 10.8916 100.69 9.93202 101.23 9.10748 101.928 8.41799 102.626 7.7214 103.462 7.18118 104.438 6.79734 105.413 6.4135 106.494 6.22159 107.68 6.22159 108.865 6.22159 109.946 6.4135 110.921 6.79734 111.904 7.18118 112.745 7.7214 113.443 8.41799 114.14 9.10748 114.681 9.93202 115.063 10.8916 115.446 11.8441 115.637 12.8925 115.637 14.037zM113.398 14.037C113.398 13.0987 113.262 12.2564 112.992 11.51 112.722 10.7637 112.339 10.1346 111.844 9.62282 111.349 9.10392 110.749 8.70587 110.043 8.42865 109.338 8.15144 108.55 8.01283 107.68 8.01283 106.817 8.01283 106.032 8.15144 105.327 8.42865 104.622 8.70587 104.018 9.10392 103.515 9.62282 103.02 10.1346 102.637 10.7637 102.367 11.51 102.097 12.2564 101.961 13.0987 101.961 14.037 101.961 14.9752 102.097 15.8175 102.367 16.5639 102.637 17.3031 103.02 17.9322 103.515 18.4511 104.018 18.9629 104.622 19.3574 105.327 19.6346 106.032 19.9047 106.817 20.0398 107.68 20.0398 108.55 20.0398 109.338 19.9047 110.043 19.6346 110.749 19.3574 111.349 18.9629 111.844 18.4511 112.339 17.9322 112.722 17.3031 112.992 16.5639 113.262 15.8175 113.398 14.9752 113.398 14.037zM129.549 8.13011H124.326V21.6711H122.154V8.13011H116.92V6.39218H129.549V8.13011zM131.744 8.1621C132.412 7.56502 133.185 7.09233 134.062 6.74403 134.94 6.39573 135.953 6.22159 137.102 6.22159 138.272 6.22159 139.342 6.4135 140.31 6.79734 141.278 7.17407 142.107 7.70718 142.797 8.39667 143.495 9.08615 144.035 9.91069 144.418 10.8703 144.801 11.8299 144.992 12.8854 144.992 14.037 144.992 15.1885 144.808 16.244 144.44 17.2036 144.073 18.1632 143.555 18.9878 142.887 19.6772 142.219 20.3596 141.413 20.8927 140.467 21.2766 139.522 21.6533 138.471 21.8417 137.315 21.8417 135.98 21.8417 134.839 21.6391 133.894 21.2339 132.956 20.8288 132.156 20.2637 131.496 19.5386L132.363 18.6537C132.453 18.5613 132.558 18.5151 132.678 18.5151 132.806 18.5151 132.933 18.5684 133.061 18.675 133.338 18.9167 133.616 19.1264 133.894 19.3041 134.179 19.4747 134.483 19.6168 134.805 19.7305 135.136 19.8443 135.492 19.9296 135.875 19.9864 136.257 20.0362 136.693 20.0611 137.18 20.0611 137.923 20.0611 138.617 19.9402 139.263 19.6986 139.908 19.4569 140.478 19.1086 140.974 18.6537 141.469 18.1916 141.87 17.6265 142.178 16.9584 142.486 16.2902 142.673 15.5297 142.741 14.6767H134.603V13.1093H142.718C142.628 12.3061 142.426 11.5918 142.11 10.9662 141.803 10.3336 141.405 9.80052 140.917 9.36692 140.43 8.92622 139.863 8.59214 139.218 8.36468 138.572 8.13011 137.871 8.01283 137.113 8.01283 136.422 8.01283 135.841 8.08391 135.368 8.22607 134.895 8.36113 134.501 8.51395 134.186 8.68454 133.871 8.85514 133.616 9.01152 133.421 9.15368 133.226 9.28873 133.061 9.35626 132.926 9.35626 132.806 9.35626 132.708 9.33494 132.633 9.29229 132.565 9.24253 132.509 9.18211 132.464 9.11103L131.744 8.1621zM131.927 2.86058V3.98748C131.927 3.98748 134.164 4.59427 137.315 4.24753 140.467 3.90079 143.253 2.34048 143.253 2.34048V0C143.253 0 139.262 2.86058 136.672 2.86058H131.927z" transform="translate(39.008 5.804)" opacity=".33" fill="#111"/></svg>