<svg width="184" height="83" viewBox="0 0 184 83" fill="none" xmlns="http://www.w3.org/2000/svg"><path fill-rule="evenodd" clip-rule="evenodd" d="M25.327 48.9863V39.4612C25.0193 39.48 24.7091 39.4895 24.3966 39.4895C16.0611 39.4895 9.3038 32.7322 9.3038 24.3966C9.3038 16.0611 16.0611 9.3038 24.3966 9.3038C24.7091 9.3038 25.0193 9.31329 25.327 9.33201V0.0136954C25.0525 0.00458911 24.7768 0 24.5 0C10.969 0 0 10.969 0 24.5C0 38.031 10.969 49 24.5 49C24.7768 49 25.0525 48.9954 25.327 48.9863Z" transform="translate(67.362)" fill="#E9585F"/><path fill-rule="evenodd" clip-rule="evenodd" d="M35.7679 24.0183C35.7679 35.8858 27.3302 45.7825 16.1266 48.0365V38.1731V35.0794H12.0949H11.1646C4.99854 35.0794 0 30.0809 0 23.9149C0 17.7489 4.99854 12.7503 11.1646 12.7503H12.0949H16.1266V9.6567V0C27.3302 2.25402 35.7679 12.1508 35.7679 24.0183Z" transform="translate(80.594 .482)" fill="#264297"/><path d="M9.24757 17.9635C7.50025 17.9635 5.91778 17.581 4.50015 16.8159 3.09901 16.0341 1.99457 14.9613 1.18685 13.5974.395618 12.2335 0 10.695 0 8.98177 0 7.26858.40386 5.73004 1.21158 4.36614 2.0193 3.00224 3.12373 1.93773 4.52488 1.17262 5.94251.390873 7.18627 0 8.93358 0 10.3512 0 11.7936.367632 12.1382.520632 12.4827.673632 14.1847 1.40138 14.9924 2.34946L13.0283 4.43438C11.6773 3.24569 10.7633 2.90392 8.93358 2.90392 7.74673 2.90392 7.17057 3.11035 6.23098 3.64261 5.29139 4.15823 4.55785 4.88176 4.03036 5.8132 3.50287 6.74464 3.23912 7.80083 3.23912 8.98177 3.23912 10.1627 3.50287 11.2189 4.03036 12.1503 4.55785 13.0818 5.29139 13.8136 6.23098 14.3459 7.17057 14.8615 8.2338 15.1193 9.42065 15.1193 11.2504 15.1193 12.7499 13.7267 12.7499 13.7267L14.9924 15.7773C14.9924 15.7773 12.7499 17.9635 9.24757 17.9635zM26.3519 17.9635C24.5881 17.9635 22.9974 17.581 21.5798 16.8159 20.1622 16.0341 19.0495 14.9613 18.2418 13.5974 17.4341 12.2169 17.0302 10.6783 17.0302 8.98177 17.0302 7.28521 17.4341 5.75499 18.2418 4.39109 19.0495 3.01056 20.1622 1.93773 21.5798 1.17262 22.9974.390873 24.5881 0 26.3519 0 28.1157 0 29.1419.390873 30.5596 1.17262 31.9772 1.93773 33.0899 3.00224 33.8976 4.36614 34.7053 5.73004 35.1092 7.26858 35.1092 8.98177 35.1092 10.695 34.7053 12.2335 33.8976 13.5974 33.0899 14.9613 31.9772 16.0341 30.5596 16.8159 29.1419 17.581 28.1157 17.9635 26.3519 17.9635zM26.3519 15.1193C27.5058 15.1193 27.9798 14.8615 28.9029 14.3459 29.826 13.8136 30.5513 13.0818 31.0788 12.1503 31.6063 11.2023 31.87 10.1461 31.87 8.98177 31.87 7.81747 31.6063 6.76959 31.0788 5.83815 30.5513 4.89008 29.826 4.15823 28.9029 3.64261 27.9798 3.11035 27.5058 2.84423 26.3519 2.84423 25.1981 2.84423 24.1596 3.11035 23.2364 3.64261 22.3133 4.15823 21.588 4.89008 21.0605 5.83815 20.5331 6.76959 20.2693 7.81747 20.2693 8.98177 20.2693 10.1461 20.5331 11.2023 21.0605 12.1503 21.588 13.0818 22.3133 13.8136 23.2364 14.3459 24.1596 14.8615 25.1981 15.1193 26.3519 15.1193zM51.0135 8.97425C52.3183 10.1381 52.4923 11.0495 52.4923 12.9292 52.4923 13.9546 52.0971 17.2584 46.6066 17.3723H38.1717V.591266H46.1368C51.5891.591266 52.4923 3.64443 52.4923 5.06848 52.4923 6.81071 52.3183 7.74569 51.0135 8.97425zM40.885 7.59543H45.8648C47.6061 7.59543 49.8448 7.80266 49.8448 5.23937 49.8448 3.07481 47.4603 3.31405 45.8648 3.31405H40.885V7.59543zM46.5077 14.7634C48.7825 14.7634 49.9199 13.8976 49.9199 12.6244 49.9199 10.5368 48.7825 10.3074 46.5077 10.3074H40.885V14.7634H46.5077zM61.3293 10.354H58.6794V17.3723H55.9661V.591266H58.6794V7.55966H61.4282L68.2046.591266H71.8426L63.675 9.0491 71.7265 17.3723H68.0917L61.3293 10.354z" transform="translate(0 64.501)" fill="#E9585F"/><path d="M80.565 17.9635C78.8012 17.9635 77.6621 17.581 76.2445 16.8159 74.8269 16.0341 73.7142 14.9613 72.9065 13.5974 72.0987 12.2169 71.6949 10.6783 71.6949 8.98177 71.6949 7.28521 72.0987 5.75499 72.9065 4.39109 73.7142 3.01056 74.8269 1.93773 76.2445 1.17262 77.6621.390873 78.8012 0 80.565 0 82.3288 0 83.9195.390873 85.3372 1.17262 86.7548 1.93773 87.8675 3.00224 88.6752 4.36614 89.4829 5.73004 89.8867 7.26858 89.8867 8.98177 89.8867 10.695 89.4829 12.2335 88.6752 13.5974 87.8675 14.9613 86.7548 16.0341 85.3372 16.8159 83.9195 17.581 82.3288 17.9635 80.565 17.9635zM80.565 15.1193C81.7189 15.1193 82.7574 14.8615 83.6805 14.3459 84.6036 13.8136 85.3289 13.0818 85.8564 12.1503 86.3839 11.2023 86.6476 10.1461 86.6476 8.98177 86.6476 7.81747 86.3839 6.76959 85.8564 5.83815 85.3289 4.89008 84.6036 4.15823 83.6805 3.64261 82.7574 3.11035 81.7189 2.84423 80.565 2.84423 79.4111 2.84423 78.8242 3.11035 77.9011 3.64261 76.978 4.15823 76.2527 4.89008 75.7252 5.83815 75.1977 6.76959 74.934 7.81747 74.934 8.98177 74.934 10.1461 75.1977 11.2023 75.7252 12.1503 76.2527 13.0818 76.978 13.8136 77.9011 14.3459 78.8242 14.8615 79.4111 15.1193 80.565 15.1193zM108.485 17.3723L108.46 5.34008 102.016 13.2118 95.3132 5.148V17.3723H92.6106V.591266H95.2563L101.993 8.61118 108.655.591266H111.276L111.325 17.3723H108.485z" transform="translate(0 64.501)" fill="#E9585F"/><path d="M0 0H13.0241V2.78351H2.71332V7.0748H9.75101C11.5578 7.0748 14.4933 8.45228 14.4933 11.9392 14.4933 15.6732 11.2756 16.781 9.25648 16.781H0V0zM9.08339 14.0582C10.8239 14.0582 11.8401 13.3423 11.8401 11.9392 11.8401 10.5362 10.711 9.68366 9.08339 9.68366H2.71332V14.0582H9.08339zM28.5423 13.081H20.001L18.4078 16.781H15.4332L22.7703 0H25.7095L33.0713 16.781H30.0473L28.5423 13.081zM27.3661 10.4222L24.2152 3.35734 21.089 10.4222H27.3661zM49.9117 0V16.6671H47.2619V9.7519H37.6336V16.6671H34.8708V0H37.6336V6.98252H47.2619V0H49.9117zM58.5264 9.76272H55.8765V16.781H53.1632V0H55.8765V6.96839H58.6253L65.4017 0H69.0397L60.8721 8.45784 68.9235 16.781H65.2888L58.5264 9.76272z" transform="translate(114.323 65.092)" fill="#2A4393"/></svg>