<svg width="180" height="53" viewBox="0 0 180 53" fill="none" xmlns="http://www.w3.org/2000/svg"><path d="M53.8096 51.0337V45.4954H50.5971V51.0337H49.1485V44.2174H55.2676V51.0337H53.8096zM57.6132 50.401V52.9143H56.3172V46.099H57.6132V46.7214C57.9903 46.242 58.5312 45.9758 59.1319 45.9758 60.3975 45.9758 61.3146 46.9156 61.3146 48.5612 61.3146 50.2067 60.3966 51.156 59.1319 51.156 58.5511 51.156 58.0102 50.9106 57.6132 50.401zM59.9684 48.5612C59.9684 47.7133 59.4691 47.1297 58.7245 47.1297 58.3067 47.1297 57.8273 47.3751 57.6132 47.6924V49.4384C57.8273 49.7454 58.3067 50.0002 58.7245 50.0002 59.4701 50.0012 59.9684 49.4195 59.9684 48.5612zM61.8451 51.0338L62.9867 49.2461C62.4259 49.103 61.8954 48.5934 61.8954 47.7142 61.8954 46.8464 62.5064 46.0999 63.5987 46.0999H66.5867V51.0347H65.2926V49.338H64.2827L63.3136 51.0347 61.8451 51.0338zM65.2926 48.2552V47.1922H63.8034C63.4462 47.1922 63.2113 47.4073 63.2113 47.7133 63.2113 48.0297 63.4367 48.2552 63.8034 48.2552H65.2926zM72.1251 51.0338V47.826L70.8082 51.0338H70.217L68.8917 47.826V51.0338H67.5957V46.098H69.3L70.5126 49.0406 71.7073 46.098H73.4192V51.0338H72.1251zM74.1335 48.5612C74.1335 47.1619 75.113 45.9758 76.734 45.9758 78.3663 45.9758 79.344 47.161 79.344 48.5612 79.344 49.9709 78.3654 51.156 76.734 51.156 75.113 51.156 74.1335 49.9709 74.1335 48.5612zM77.9987 48.5612C77.9987 47.7957 77.5393 47.1297 76.734 47.1297 75.9287 47.1297 75.4797 47.7948 75.4797 48.5612 75.4797 49.3371 75.9287 50.0012 76.734 50.0012 77.5393 50.0012 77.9987 49.3371 77.9987 48.5612zM85.5956 51.0338L84.2902 49.1325 83.7 49.7662V51.0338H82.404V46.098H83.7V48.2959L85.5653 46.098H87.156L85.2082 48.3376 87.2166 51.0338H85.5956zM93.8359 51.0338H89.9602V46.098H91.2552V49.8989H93.2949V46.098H94.5909V49.8989H95.13V52.291H93.8359V51.0338zM95.3744 48.5621C95.3744 47.1316 96.425 45.9758 97.9237 45.9758 99.3922 45.9758 100.393 47.0795 100.393 48.6938V48.9799H96.732C96.8134 49.6023 97.3136 50.1234 98.1483 50.1234 98.567 50.1234 99.1487 49.9396 99.4651 49.6326L100.035 50.4711C99.5466 50.9201 98.7707 51.156 98.0062 51.156 96.5074 51.156 95.3744 50.1442 95.3744 48.5621zM97.9237 47.0084C97.1185 47.0084 96.7717 47.611 96.7102 48.1017H99.1383C99.107 47.6328 98.7811 47.0084 97.9237 47.0084zM100.616 50.094C101.015 50.094 101.249 49.6857 101.402 48.4892L101.718 46.099H105.705V51.0338H104.411V47.233H102.85L102.687 48.6436C102.483 50.3489 101.872 51.157 100.616 51.157V50.094zM106.735 51.0338V46.098H108.03V49.0813L110.06 46.098H111.366V51.0338H110.07V47.9388L107.98 51.0338H106.735zM16.38 0C19.854 0 20.9463 2.48779 21.8586 4.97747 22.2461 6.03284 31.2717 30.7449 31.5407 31.4848 31.6165 31.6933 31.5663 32.0305 31.248 32.1537 30.9278 32.2768 26.2374 34.0977 25.9797 34.1962 25.7201 34.2938 25.4283 34.1488 25.3326 33.893 25.2369 33.6373 23.2939 28.2486 23.0732 27.6451H9.70294C9.48221 28.2486 7.51831 33.6448 7.42831 33.893 7.33831 34.1403 7.05695 34.307 6.78316 34.1962 6.50747 34.0882 1.79716 32.2617 1.51863 32.1537 1.24958 32.0533 1.12547 31.7454 1.22116 31.4848 1.55179 30.5593 10.439 6.24505 10.8947 4.97747 11.7748 2.52663 12.9079 0 16.38 0zM.506842 44.2175C.225474 44.2175 0 44.4496 0 44.7366V50.5089C0 50.7979.225474 51.0281.506842 51.0281H32.2541C32.5326 51.0281 32.7553 50.7988 32.7553 50.5089V44.7366C32.7553 44.4496 32.5326 44.2175 32.2541 44.2175H.506842zM16.3544 8.07063L11.8317 21.6445H20.9473L16.4094 8.07063H16.3544zM139.88 27.6602C139.88 29.2973 138.974 30.3735 137.307 30.3735 136.646 30.3735 136.105 30.3745 135.243 30.1414V25.1876C135.623 25.126 136.41 25.0038 137.307 25.036 139.001 25.1005 139.88 25.8934 139.88 27.6602zM143.305 27.4168C143.305 24.3824 141.527 22.2925 137.791 22.2925 136.874 22.2925 136.234 22.3806 135.244 22.6146L135.237 18.2785C135.852 18.1904 136.907 18.1136 138.068 18.1136 139.166 18.1136 140.556 18.1733 141.778 18.322L141.866 15.7907C140.476 15.4809 138.464 15.2886 136.902 15.2886 135.363 15.2886 132.97 15.6732 131.831 15.983L131.83 32.0949C133.605 32.7448 135.338 33.0432 137.119 33.0432 141.19 33.0441 143.305 30.8841 143.305 27.4168zM104.724 26.5395C104.724 28.7914 103.827 30.2418 102.35 30.2418 101.73 30.2418 101.403 30.2105 100.701 29.9813V23.218C101.471 22.8514 101.885 22.8561 102.505 22.8561 103.984 22.858 104.724 24.0754 104.724 26.5395zM93.473 26.6143C93.473 24.154 94.2139 22.8571 95.6908 22.8571 96.3133 22.8571 96.7273 22.8514 97.4956 23.219V29.9822C96.7983 30.2106 96.4686 30.2428 95.8453 30.2428 94.1618 30.2418 93.473 28.8672 93.473 26.6143zM100.701 36.7455V32.3469C101.109 32.5875 101.923 32.9409 103.293 32.9409 106.02 32.9409 108.027 30.6776 108.027 26.5395 108.027 22.0774 106.033 20.1703 102.753 20.1703 101.92 20.1703 101.378 20.2547 100.701 20.5768V15.3189H97.4956V20.5768C96.822 20.2547 96.2773 20.1703 95.4445 20.1703 92.1638 20.1703 90.1667 22.156 90.1667 26.6153 90.1667 30.7562 91.9715 32.9409 94.8979 32.9409 96.2744 32.9409 97.0873 32.5875 97.4946 32.3469V36.7455H100.701zM73.3291 32.7362V23.109C72.4784 22.983 72.3353 22.9556 71.6504 22.9556 70.9692 22.9556 70.8006 22.983 69.9461 23.109V27.5541C69.9461 31.1285 68.9731 32.2549 66.3897 32.9806L65.5115 31.0972C66.1613 30.6671 66.3991 30.1091 66.5763 29.643 66.7553 29.1135 66.7847 28.6199 66.7847 26.9762V20.9339C68.5525 20.4071 69.8788 20.1807 71.6504 20.1807 73.4229 20.1807 74.7824 20.4071 76.5492 20.9339V32.7371L73.3291 32.7362zM115.891 30.1462C115.184 30.3906 114.718 30.4455 114.159 30.4455 113.007 30.4455 112.353 29.9927 112.353 28.8104 112.353 27.5835 113.179 27.1657 114.775 27.1657 115.157 27.1657 115.545 27.2235 115.725 27.287V28.169C115.725 29.1211 115.772 29.7407 115.891 30.1462zM119.979 31.5577C119.132 30.2665 118.911 29.5038 118.911 27.8791V24.5794C118.911 22.7974 118.704 22.1428 118.232 21.4901 117.581 20.5711 116.49 20.1779 114.482 20.1779 113.065 20.1779 111.671 20.3295 110.34 20.6677L110.816 23.0324C111.723 22.9064 112.665 22.7974 113.348 22.7974 115.478 22.7974 115.725 23.1082 115.725 24.7026V25.3023C115.251 25.1753 114.717 25.0825 114.097 25.0825 110.878 25.0825 109.184 26.6542 109.184 29.2433 109.184 31.6799 110.993 33.0072 113.212 33.0072 114.038 33.0072 114.896 32.8556 115.577 32.579 115.985 32.399 116.166 32.2976 116.697 31.9462 117.02 32.4179 117.659 32.8945 117.921 32.9788L119.979 31.5577zM151.137 30.1462C150.43 30.3906 149.964 30.4455 149.402 30.4455 148.247 30.4455 147.6 29.9927 147.6 28.8104 147.6 27.5835 148.426 27.1657 150.021 27.1657 150.407 27.1657 150.792 27.2235 150.968 27.287V28.169C150.967 29.1211 151.018 29.7407 151.137 30.1462zM155.226 31.5577C154.374 30.2665 154.153 29.5038 154.153 27.8791V24.5794C154.153 22.7974 153.952 22.1428 153.477 21.4901 152.824 20.5711 151.736 20.1779 149.726 20.1779 148.304 20.1779 146.917 20.3295 145.584 20.6677L146.061 23.0324C146.963 22.9064 147.912 22.7974 148.593 22.7974 150.72 22.7974 150.966 23.1082 150.966 24.7026V25.3023C150.493 25.1753 149.962 25.0825 149.34 25.0825 146.121 25.0825 144.427 26.6542 144.427 29.2433 144.427 31.6799 146.24 33.0072 148.454 33.0072 149.279 33.0072 150.139 32.8556 150.818 32.579 151.229 32.399 151.407 32.2976 151.937 31.9462 152.259 32.4179 152.904 32.8945 153.166 32.9788L155.226 31.5577zM85.5966 28.494C85.5966 29.7028 85.1713 30.5308 83.6242 30.5308 83.1031 30.5308 82.89 30.5308 82.2136 30.3413V26.8086C83.052 26.6466 83.1268 26.6191 83.6242 26.6191 85.1021 26.6191 85.5966 27.3372 85.5966 28.494zM78.9992 20.375L78.9859 32.0911C80.5121 32.7353 82.1889 33.0233 83.6782 33.0233 87.0954 33.0233 88.9257 31.2565 88.9257 28.3452 88.9257 25.7096 87.3057 24.0792 84.2798 24.0792 83.5105 24.0792 83.0605 24.1806 82.2164 24.3852V20.375H78.9992zM163.668 32.7363V27.7323H160.025V32.7363H156.81V20.4868H160.025V25.1176H163.668V20.4868H166.889V32.7363H163.668zM176.491 32.7363C176.491 32.7363 175.404 30.0789 174.832 28.9203 174.344 27.9502 174.185 27.7228 173.265 27.7228L172.827 27.7294V32.7363H169.596V20.4868H172.827V25.1157H173.367C174.201 25.1157 174.353 24.8277 174.663 24.1816 174.965 23.5516 175.204 23.0523 175.506 22.4346 175.789 21.8539 176.018 21.3603 176.352 21.0268 176.779 20.592 177.23 20.3466 178.101 20.2936 178.628 20.2623 179.139 20.2642 179.6 20.3248L179.435 22.554C179.435 22.554 179.004 22.446 178.687 22.733 178.365 23.0153 178.203 23.2711 177.651 24.4696 177.082 25.6926 176.553 26.0962 175.889 26.2203V26.2762C176.883 26.514 177.327 27.1762 177.813 28.1397 178.242 28.9866 180 32.7363 180 32.7363H176.491zM60.9025 32.7343H64.6115L59.0106 15.6125C58.4214 15.4145 57.6852 15.2904 56.9084 15.2904 56.0586 15.2904 55.7564 15.4032 55.0895 15.6125L49.1495 32.7343H52.7021C52.7021 32.7343 53.1796 31.2346 53.7613 29.3712H59.903C60.4563 31.2337 60.9025 32.7343 60.9025 32.7343zM54.6631 26.5035C54.6631 26.5035 55.6882 23.0721 55.8445 22.5359 56.2585 21.1385 56.879 18.9406 56.879 18.9406H56.9804C56.9804 18.9406 57.5526 21.2191 57.9249 22.5151 58.0708 23.0181 59.0495 26.5025 59.0495 26.5025L54.6631 26.5035zM127.425 26.6105C127.425 27.7512 126.506 28.6673 125.374 28.6673 124.241 28.6673 123.319 27.7512 123.319 26.6105 123.319 25.4813 124.241 24.5566 125.374 24.5566 126.507 24.5566 127.425 25.4813 127.425 26.6105z" fill="#EE3524"/></svg>