<svg width="168" height="65" viewBox="0 0 168 65" fill="none" xmlns="http://www.w3.org/2000/svg"><path fill-rule="evenodd" clip-rule="evenodd" d="M1.40845 0C0.630585 0 0 0.627909 0 1.40247V51.3603C0 52.0652 0.525432 52.6606 1.22746 52.7511L83.1523 63.3217C83.2725 63.3372 83.3942 63.3372 83.5143 63.3217L165.439 52.7511C166.141 52.6606 166.667 52.0652 166.667 51.3603V1.40247C166.667 0.627909 166.036 0 165.258 0H1.40845ZM162.911 2.33746H3.75587C2.978 2.33746 2.34742 2.96536 2.34742 3.73993V49.2248C2.34742 49.93 2.87332 50.5255 3.57574 50.6157L83.1532 60.9845C83.2728 60.9998 83.3939 60.9998 83.5135 60.9845L163.091 50.6157C163.793 50.5255 164.319 49.93 164.319 49.2248V3.73993C164.319 2.96537 163.689 2.33746 162.911 2.33746Z" transform="translate(.667 .833)" fill="#FD7222"/><path d="M5.44225 19.4215V14.036H11.8986C13.1155 14.036 13.7577 14.9111 13.7577 16.8297 13.7577 18.6473 13.1831 19.4215 12.0338 19.4215H5.44225zM5.44225 5.18354H11.8648C12.9127 5.18354 13.3859 5.78941 13.3859 7.40506 13.3859 9.02071 12.9127 9.62658 11.8648 9.62658H5.44225V5.18354zM14.1972 11.6798C18.4225 11.3432 19.2338 9.45828 19.2338 6.19333 19.2338 2.52445 18.0507.572207 13.3521.572207H0V24.0328H13.4535C17.2732 24.0328 19.6732 22.4171 19.6732 17.7048 19.6732 14.036 18.693 11.8818 14.1972 11.6798zM24.4278.572207V24.0328H29.8701V.572207H24.4278zM48.8401 19.3205C48.2316 19.3878 47.3527 19.4888 46.6091 19.4888 41.8767 19.4888 40.1189 18.6136 40.1189 12.151 40.1189 5.65477 41.8767 4.94793 46.9471 4.94793 48.4006 4.94793 51.6119 5.2172 52.795 5.62111L53.7753.841483C51.9837.336593 48.6034 0 46.4063 0 38.564 0 34.3048 2.49079 34.3048 12.0837 34.3048 21.643 37.8879 24.504 45.4598 24.504 48.502 24.504 52.457 23.9991 54.4175 23.3933V9.76122H44.1753V14.4062H48.8401V19.3205zM59.485.572207V24.0328H75.5414V19.2532H64.9273V.572207H59.485zM78.169.572207V24.0328H83.6113V.572207H78.169zM99.5052 0C91.9334 0 88.046 2.52445 88.046 12.0501 88.046 21.7103 91.9334 24.504 99.5052 24.504 107.043 24.504 110.964 21.7103 110.964 12.0501 110.964 2.52445 107.043 0 99.5052 0zM99.5052 19.5561C94.739 19.5561 93.8601 18.6136 93.8601 12.1174 93.8601 5.72209 94.739 4.98159 99.5052 4.98159 104.271 4.98159 105.15 5.72209 105.15 12.1174 105.15 18.6136 104.271 19.5561 99.5052 19.5561zM136.735.572207H131.327V16.0219C128.521 10.771 125.513 5.52014 122.471.572207H115.372V24.0328H120.713V8.01093C123.924 13.2955 127.068 18.6809 129.975 24.0328H136.735V.572207zM37.2617 35.979C37.1481 37.3881 36.4974 37.604 35.2373 37.604 34.7828 37.604 34.0908 37.5218 33.75 37.4086 33.6363 37.9023 33.533 38.4063 33.4194 38.8999 33.9772 39.0336 34.9171 39.1365 35.5884 39.1365 37.9021 39.1365 39.0795 38.2623 39.0795 35.3414 39.0795 32.4102 37.9021 31.6491 35.5884 31.6491 34.9171 31.6491 33.9772 31.7623 33.4194 31.9063 33.533 32.3999 33.6363 32.8833 33.75 33.3667 34.0908 33.2536 34.7828 33.1713 35.2373 33.1713 36.4457 33.1713 37.0964 33.3256 37.241 34.5597H34.4213V35.979H37.2617zM43.8836 38.9925V33.2741H46.2798V31.824H39.8037V33.2741H42.2103V38.9925H43.8836zM50.5032 31.6491C48.1896 31.6491 47.0018 32.4205 47.0018 35.3311 47.0018 38.2828 48.1896 39.1365 50.5032 39.1365 52.8065 39.1365 54.0046 38.2828 54.0046 35.3311 54.0046 32.4205 52.8065 31.6491 50.5032 31.6491zM50.5032 37.6246C49.0469 37.6246 48.7784 37.3366 48.7784 35.3517 48.7784 33.3976 49.0469 33.1713 50.5032 33.1713 51.9596 33.1713 52.2281 33.3976 52.2281 35.3517 52.2281 37.3366 51.9596 37.6246 50.5032 37.6246zM58.0765 35.3414C58.0765 38.2623 59.1713 39.1365 61.4849 39.1365 62.1563 39.1365 63.0136 39.0439 63.5713 38.8999L63.2511 37.4086C62.8999 37.5218 62.2906 37.604 61.8361 37.604 60.3901 37.604 59.853 37.3366 59.853 35.362 59.853 33.377 60.3901 33.1713 61.8361 33.1713 62.2906 33.1713 62.8999 33.2433 63.2511 33.3667L63.5713 31.9063C63.0239 31.752 62.1563 31.6491 61.4849 31.6491 59.1713 31.6491 58.0765 32.4102 58.0765 35.3414zM71.0688 38.9925C70.0256 35.8762 69.2922 35.3311 68.5279 35.0431 68.8481 34.7449 69.6847 33.6753 70.8829 31.824H68.8997C67.9805 33.305 66.9373 34.6215 66.3589 35.2591V31.824H64.696V38.9925H66.3589V35.6499C67.4951 35.7733 68.1767 36.3596 69.096 38.9925H71.0688zM78.5211 31.824H76.4864C75.5981 33.4593 74.6169 35.1254 73.6254 36.7401V31.824H71.9934V38.9925H74.1728C75.1023 37.4909 76.0319 35.8659 76.8789 34.2718V38.9925H78.5211V31.824zM86.7933 31.824H81.8149C81.722 33.9324 81.3501 35.7836 80.8027 37.4703H79.6459L79.8731 40.5764H81.3605V38.9925H86.3595V40.5764H87.8365L88.0637 37.4703H86.7933V31.824zM85.1407 37.4703H82.5999C83.013 36.0819 83.2196 34.642 83.3436 33.2741H85.1407V37.4703zM95.4928 38.9925C94.4496 35.8762 93.7162 35.3311 92.9519 35.0431 93.2721 34.7449 94.1087 33.6753 95.3069 31.824H93.3238C92.4045 33.305 91.3613 34.6215 90.7829 35.2591V31.824H89.12V38.9925H90.7829V35.6499C91.9191 35.7733 92.6007 36.3596 93.52 38.9925H95.4928zM102.945 31.824H100.91C100.022 33.4593 99.0409 35.1254 98.0494 36.7401V31.824H96.4174V38.9925H98.5968C99.5264 37.4909 100.456 35.8659 101.303 34.2718V38.9925H102.945V31.824z" transform="translate(15.41 12.33)" fill="#FD7222"/></svg>