<svg width="164" height="42" viewBox="0 0 164 42" fill="none" xmlns="http://www.w3.org/2000/svg"><path fill-rule="evenodd" clip-rule="evenodd" d="M2.84637 23.178L3.68393 24.6843L2.00882 24.7967H0.431424L1.22012 23.2342L2.84637 23.178ZM2.47952 25.7292L0.431424 26.8556L3.2193 27.1948L2.47952 25.7292ZM5.26849 27.5341L3.53439 27.8191L0.182007 28.9115L4.39747 29.5289L6.08938 29.0104L5.26849 27.5341ZM6.56632 29.8682L4.82216 30.3703L0.258858 30.791L5.622 31.9548L7.40388 31.3745L6.56632 29.8682ZM7.89434 32.2565L6.08938 32.8808L0.345141 32.9011L7.0141 34.7128L8.86771 34.0071L7.89434 32.2565ZM7.32073 35.3913L7.35121 35.3806L9.26008 34.7128L10.3542 36.6805L8.49366 37.6439L0.431424 35.0113L7.32073 35.3913Z" fill="#111"/><path d="M3.2193 27.1948L4.89121 26.8556L4.12549 25.4785L2.47952 25.7292L3.2193 27.1948Z" fill="#111"/><path fill-rule="evenodd" clip-rule="evenodd" d="M0.431424 21.6717H2.00882L2.64264 22.8116H1.00681L0.431424 21.6717Z" fill="#111"/><path d="M1.00681 22.8116L.431424 21.6717 0 22.8116H1.00681zM27.1258 0L10.3542 6.45945V7.27367L27.1258 1.84556V0zM36.0104 11.1276L27.1258 0V1.84556L36.0104 11.6704V11.1276zM27.1258 2.89047L10.3542 8.68498V9.47205L27.1258 5.07528V2.89047zM27.1258 2.89047V5.07528L36.0104 13.2582V12.1183L27.1258 2.89047zM27.1258 6.03877L12.1338 10.6447C12.5226 10.7653 12.9048 10.907 13.2798 11.0689L27.1258 8.10145V6.03877zM27.1258 6.03877V8.10145L36.0104 14.8052V13.801L27.1258 6.03877zM27.1258 9.11922L15.5448 12.3507C15.8017 12.5334 16.0534 12.7263 16.2997 12.9291L27.1258 11.1276V9.11922zM27.1258 9.11922V11.1276L36.0104 16.3386V15.253L27.1258 9.11922zM27.1258 12.1183L17.9715 14.5496C18.1719 14.7768 18.3671 15.0114 18.5566 15.253L27.1258 14.2352V12.1183zM27.1258 12.1183V14.2352L36.0104 17.9263V16.7593L27.1258 12.1183zM27.1258 15.253L19.7582 17.0036C19.9094 17.2561 20.0553 17.514 20.1957 17.7771L27.1258 17.3021V15.253zM27.1258 15.253V17.3021L36.0104 19.4326V18.3199L27.1258 15.253zM27.1258 18.3199L21.0872 19.704C21.1916 19.9672 21.2909 20.2341 21.3849 20.5047H27.1258V18.3199zM27.1258 18.3199V20.5047L36.0104 20.8575V19.894L27.1258 18.3199zM27.1258 21.4546L21.952 22.4452C22.0196 22.7272 22.0816 23.0123 22.138 23.3002L27.1258 23.5309V21.4546zM27.1258 21.4546V23.5309L36.0104 22.4452V21.4546H27.1258zM27.1258 24.6979L22.4307 25.2814C22.4655 25.6267 22.4923 25.9751 22.5108 26.3263L27.1258 26.5842V24.6979zM27.1258 24.6979V26.5842L36.0104 24.033V23.0559L27.1258 24.6979zM27.1258 27.6291L22.5329 28.1447C22.5238 28.4637 22.508 28.7804 22.4855 29.0947L27.1258 29.6239V27.6291zM27.1258 27.6291V29.6239L36.0104 25.5935V24.5486L27.1258 27.6291zM27.1258 30.8452L22.2661 30.9945C22.2142 31.318 22.1552 31.6382 22.0893 31.9548L27.1258 32.7858V30.8452zM27.1258 30.8452V32.7858L36.0104 27.1948V26.0685L27.1258 30.8452zM27.1258 33.8036V35.7984L36.0104 28.6197V27.5069L27.1258 33.8036zM27.1258 33.8036H21.6154C21.5426 34.0414 21.4657 34.2766 21.3849 34.5092L27.1258 35.7984V33.8036zM20.3307 36.979L27.1258 38.8992V36.979L20.6679 36.2874C20.5597 36.5215 20.4472 36.7521 20.3307 36.979zM27.1258 36.979V38.8992L36.0104 30.2346V29.0947L27.1258 36.979zM27.1258 42L36.0104 31.9548V30.6824L27.1258 40.0323V42z" fill="#111"/><path d="M18.7954 39.4488L27.1258 42V40.0323L19.437 38.526C19.2317 38.8432 19.0177 39.151 18.7954 39.4488zM7.0141 12.3507H4.39747V13.2853L7.0141 12.3507zM8.60152 12.7561L4.39747 13.8824V14.5496L9.99017 13.528C9.15795 13.0053 8.60152 12.7561 8.60152 12.7561z" fill="#111"/><path d="M16.0072 14.7645L8.60152 12.7561C8.60152 12.7561 9.15795 13.0053 9.99017 13.528L16.0072 14.7645zM11.0314 14.2352C11.5707 14.63 12.1596 15.107 12.754 15.67L17.3513 16.4982C17.0554 16.0481 16.7469 15.6339 16.4315 15.253L11.0314 14.2352z" fill="#111"/><path d="M11.0314 14.2352L4.39747 16.0401V16.6236L12.754 15.67C12.1596 15.107 11.5707 14.63 11.0314 14.2352zM14.8033 18.0213C14.4106 17.4673 13.9941 16.9601 13.5699 16.4982L4.39747 18.0213V18.632L14.8033 18.0213z" fill="#111"/><path d="M17.8434 17.3021L13.5699 16.4982C13.9941 16.9601 14.4106 17.4673 14.8033 18.0213L18.467 18.5234C18.2706 18.0927 18.0618 17.686 17.8434 17.3021zM18.7579 19.2019L15.3489 18.8491C15.6716 19.3773 15.9696 19.9424 16.2317 20.5454L19.2911 20.7354C19.1309 20.1955 18.9521 19.6849 18.7579 19.2019z" fill="#111"/><path d="M16.2317 20.5454C15.9696 19.9424 15.6716 19.3773 15.3489 18.8491L4.39747 20.1519V20.7489L16.2317 20.5454zM17.0656 23.178C16.9413 22.5752 16.7798 22.001 16.5883 21.4546L4.76517 22.106 5.18648 22.8523 17.0656 23.178z" fill="#111"/><path d="M19.4889 21.4546H16.5883C16.7798 22.001 16.9413 22.5752 17.0656 23.178L19.8302 23.083C19.7348 22.5145 19.6202 21.972 19.4889 21.4546zM17.2194 24.0737C17.3051 24.6967 17.3513 25.3479 17.3513 26.0278L20.1038 25.4985C20.0671 24.91 20.0114 24.3449 19.9386 23.8023L17.2194 24.0737z" fill="#111"/><path d="M17.3513 26.0278C17.3513 25.3479 17.3051 24.6967 17.2194 24.0737L5.9755 24.2501 6.48874 25.1593 17.3513 26.0278zM20.1241 28.6876L17.1635 29.6375C17.0929 30.2807 17.0047 30.8816 16.9032 31.4423L20.0204 30.2074C20.0659 29.7293 20.1011 29.2232 20.1241 28.6876zM20.1556 27.1948C20.1556 26.9329 20.152 26.6751 20.1451 26.4213L17.3371 27.0591C17.3212 27.6273 17.2923 28.1698 17.2522 28.6876L20.1489 27.8869C20.1533 27.6611 20.1555 27.4304 20.1556 27.1948z" fill="#111"/><path d="M17.2522 28.6876C17.2923 28.1698 17.3212 27.6273 17.3371 27.0591L7.35121 26.6872 7.80631 27.4934 17.2522 28.6876zM16.9032 31.4423C17.0047 30.8816 17.0929 30.2807 17.1635 29.6375L8.80216 29.2575 9.26008 30.0687 16.9032 31.4423zM16.3183 33.8714C16.4636 33.3998 16.6012 32.885 16.7257 32.3244L10.1963 31.7273 10.7402 32.6908 16.3183 33.8714zM15.5582 35.8662C15.7282 35.5014 15.8994 35.0909 16.0648 34.6313L11.5522 34.1292 12.3226 35.4939 15.5582 35.8662zM12.9924 36.6805L13.9269 38.336C13.9269 38.336 14.3858 37.94 14.9677 36.979L12.9924 36.6805z" fill="#111"/><path d="M13.9269 38.336L18.7954 35.4244C18.8925 35.2046 18.9881 34.9678 19.0808 34.7128L14.9677 36.979C14.3858 37.94 13.9269 38.336 13.9269 38.336zM19.6048 32.8943L16.0648 34.6313C15.8994 35.0909 15.7282 35.5014 15.5582 35.8662L19.3063 34.0342C19.4126 33.6838 19.5129 33.3046 19.6048 32.8943zM19.9331 30.9945L16.7257 32.3244C16.6012 32.885 16.4636 33.3998 16.3183 33.8714L19.7358 32.2565C19.8099 31.862 19.8762 31.4418 19.9331 30.9945z" fill="#111"/><path d="M0 27.0655C0 25.5766 1.1978 24.3697 2.67537 24.3697H14.1794C15.657 24.3697 16.8548 25.5766 16.8548 27.0655V27.7125H0V27.0655Z" transform="translate(48.157 4.205)" fill="#111"/><path fill-rule="evenodd" clip-rule="evenodd" d="M7.11648 5.49936C4.75237 5.49936 2.83589 7.43045 2.83589 9.81258V24.3697H5.93931V10.4596C5.93931 9.56627 6.658 8.84211 7.54454 8.84211H10.755V24.3697H13.8584V5.49936H7.11648zM22.4196 5.49936C20.0555 5.49936 18.139 7.43045 18.139 9.81258V23.3992C18.139 25.7814 20.0555 27.7125 22.4196 27.7125H25.6835C28.0476 27.7125 29.9641 25.7814 29.9641 23.3992V9.81258C29.9641 7.43045 28.0476 5.49936 25.6835 5.49936H22.4196zM25.202 8.78819H22.9011C22.0146 8.78819 21.2959 9.51235 21.2959 10.4057V22.8062C21.2959 23.6995 22.0146 24.4236 22.9011 24.4236H25.202C26.0885 24.4236 26.8072 23.6995 26.8072 22.8062V10.4057C26.8072 9.51235 26.0885 8.78819 25.202 8.78819zM48.9057 9.81258C48.9057 7.43045 50.8222 5.49936 53.1863 5.49936H55.7011C58.0652 5.49936 59.9817 7.43045 59.9817 9.81258V11.2953H56.8248V10.4057C56.8248 9.51235 56.1061 8.78819 55.2196 8.78819H53.6679C52.7813 8.78819 52.0626 9.51235 52.0626 10.4057V22.8062C52.0626 23.6995 52.7813 24.4236 53.6679 24.4236H55.2196C56.1061 24.4236 56.8248 23.6995 56.8248 22.8062V21.8087H59.9817V23.3992C59.9817 25.7814 58.0652 27.7125 55.7011 27.7125H53.1863C50.8222 27.7125 48.9057 25.7814 48.9057 23.3992V9.81258zM94.1194 5.49936C91.7553 5.49936 89.8388 7.43045 89.8388 9.81258V23.3992C89.8388 25.7814 91.7553 27.7125 94.1194 27.7125H97.3834C99.7475 27.7125 101.664 25.7814 101.664 23.3992V9.81258C101.664 7.43045 99.7475 5.49936 97.3834 5.49936H94.1194zM96.9018 8.78819H94.601C93.7144 8.78819 92.9958 9.51235 92.9958 10.4057V22.8062C92.9958 23.6995 93.7144 24.4236 94.601 24.4236H96.9018C97.7883 24.4236 98.507 23.6995 98.507 22.8062V10.4057C98.507 9.51235 97.7883 8.78819 96.9018 8.78819zM109.101 27.7125C106.737 27.7125 104.821 25.7814 104.821 23.3992V5.60719H107.924V22.7522C107.924 23.6455 108.643 24.3697 109.53 24.3697H112.74V5.60719H115.843V27.7125H109.101zM82.5083 5.60719C84.8724 5.60719 86.7889 7.53829 86.7889 9.92041V13.1553H83.6855V10.5674C83.6855 9.6741 82.9668 8.94994 82.0803 8.94994H78.8698V27.7125H75.7664V5.60719H82.5083z" transform="translate(48.157 4.205)" fill="#111"/><path fill-rule="evenodd" clip-rule="evenodd" d="M82.5083 18.9243C84.8724 18.9243 86.7889 16.9932 86.7889 14.611V11.3761H83.6855V13.9641C83.6855 14.8574 82.9668 15.5815 82.0803 15.5815H78.8698V8.14121H75.7664V18.9243H82.5083Z" transform="translate(48.157 4.205)" fill="#111"/><path d="M33.9772 5.49936H36.8666V27.389H33.9772V5.49936zM41.9498 5.6611H44.8391V27.5507H41.9498V5.6611zM65.921 5.82285H68.8104V27.7125H65.921V5.82285z" transform="translate(48.157 4.205)" fill="#111"/><path d="M61.801 8.78819V5.6611H72.556V8.78819H61.801zM34.0842 18.5469V15.4198H44.8391V18.5469H34.0842zM106.212 0H114.666V1.18614C114.666 2.07943 113.948 2.80359 113.061 2.80359H107.817C106.931 2.80359 106.212 2.07943 106.212 1.18614V0z" transform="translate(48.157 4.205)" fill="#111"/></svg>