<svg width="120" height="61" viewBox="0 0 120 61" fill="none" xmlns="http://www.w3.org/2000/svg"><path d="M0 60.8824C0 58.8332 0 56.8647 0 54.8232C0.17772 54.8232 0.350883 54.8232 0.524805 54.8232C6.1526 54.8232 11.7804 54.8202 17.4074 54.8308C17.7537 54.8316 17.9079 54.7388 18.0196 54.3952C19.8112 48.8592 21.6188 43.3285 23.4248 37.797C24.3909 34.8386 25.363 31.8832 26.3283 28.9239C27.9035 24.0943 29.4726 19.2639 31.047 14.4342C32.007 11.4894 32.9746 8.54617 33.9354 5.60139C34.4936 3.88988 35.045 2.17608 35.6017 0.463805C35.6427 0.337589 35.6974 0.216696 35.7817 0C36.1637 1.13214 36.5131 2.17 36.8639 3.20786C38.6199 8.40247 40.3766 13.5971 42.131 18.7917C43.1267 21.7395 44.1193 24.6881 45.1142 27.6359C46.997 33.216 48.8798 38.7961 50.7625 44.3755C51.7704 47.3628 52.7782 50.3509 53.7853 53.3391C53.9235 53.7489 54.042 54.1663 54.2076 54.5647C54.2547 54.6788 54.4248 54.7647 54.5569 54.8134C54.6678 54.8544 54.8053 54.8217 54.9306 54.8217C76.1286 54.8217 97.3259 54.8217 118.524 54.8217C118.704 54.8217 118.885 54.8217 119.097 54.8217C119.097 55.0012 119.097 55.1593 119.097 55.373C79.418 57.2092 39.731 59.0446 0 60.8824ZM50.5423 54.8042C45.614 42.245 40.7001 29.723 35.749 17.106C31.1389 29.7344 26.5683 42.2549 21.9871 54.8042C31.5255 54.8042 41.0016 54.8042 50.5423 54.8042Z" fill="#000"/><path d="M96.8345 45.2886C98.0413 45.2886 99.1828 45.2886 100.354 45.2886 100.354 46.4831 100.354 47.6472 100.354 48.8364 91.9548 48.8364 83.5693 48.8364 75.1504 48.8364 75.1504 47.6632 75.1504 46.4991 75.1504 45.2909 76.3109 45.2909 77.4638 45.2909 78.6691 45.2909 78.6691 45.0856 78.6691 44.9229 78.6691 44.761 78.6691 39.6447 78.6638 34.5284 78.6714 29.4113 78.6744 27.4892 78.8575 25.5899 79.4992 23.7582 80.4402 21.0742 82.2683 19.3825 85.0701 18.8175 87.5012 18.3271 89.9049 18.3849 92.2107 19.4106 94.0654 20.2356 95.2221 21.7121 95.9277 23.575 96.6051 25.3648 96.817 27.2383 96.8246 29.1323 96.8444 34.3322 96.833 39.5329 96.8337 44.7336 96.8345 44.8986 96.8345 45.0636 96.8345 45.2886zM92.5669 45.2643C92.5738 45.1358 92.5814 45.0529 92.5814 44.9708 92.5814 39.6173 92.6057 34.2638 92.5609 28.911 92.551 27.7196 92.3854 26.5121 92.134 25.3458 91.828 23.9255 91.0426 22.8146 89.5594 22.36 88.6617 22.0847 87.748 22.0573 86.8237 22.1691 85.1445 22.3721 84.0432 23.2784 83.4956 24.8805 83.0513 26.1814 82.9321 27.5295 82.9283 28.8867 82.9146 34.2257 82.9207 39.5656 82.9207 44.9047 82.9207 45.024 82.9389 45.1434 82.948 45.2643 86.1683 45.2643 89.3475 45.2643 92.5669 45.2643zM.888597 48.8485C.888597 38.8858.888597 28.9673.888597 19.0685.922015 19.038.932648 19.0213.942521 19.0213 3.92654 19.0593 6.92044 18.8061 9.89003 19.2753 11.1629 19.476 12.3963 19.8204 13.5287 20.4682 14.9414 21.2757 15.9082 22.4375 16.313 24.0243 16.8249 26.0347 16.7307 27.9887 15.6462 29.8158 15.0264 30.8597 14.1394 31.6368 13.1072 32.2565 12.9667 32.3409 12.8224 32.4169 12.6492 32.5142 13.2766 32.7826 13.8713 33.0047 14.4356 33.2852 15.8209 33.9733 16.9305 34.9678 17.6497 36.3554 18.2474 37.5089 18.4669 38.7589 18.4661 40.0438 18.4646 41.7964 18.214 43.4935 17.2806 45.0324 16.3844 46.5097 15.0682 47.4442 13.4824 48.0342 11.8662 48.6356 10.1748 48.8348 8.46599 48.8531 6.03639 48.8797 3.6068 48.8599 1.17644 48.8599 1.09594 48.8607 1.01391 48.8538.888597 48.8485zM5.13185 34.5192C5.13185 38.1339 5.13185 41.6915 5.13185 45.2172 6.34475 45.2172 7.5341 45.2856 8.7113 45.1951 9.60522 45.1259 10.509 44.9313 11.3642 44.6553 12.8604 44.1717 13.8302 43.1133 14.0923 41.5501 14.2259 40.7494 14.2168 39.9039 14.1356 39.0919 13.9571 37.3097 13.0024 36.0376 11.3725 35.2895 9.38193 34.3763 7.26448 34.5101 5.13185 34.5192zM5.12577 22.5804C5.12577 25.5252 5.12577 28.4236 5.12577 31.3654 6.73208 31.3555 8.32245 31.4809 9.85205 30.9 10.9336 30.4895 11.7029 29.7618 12.0614 28.657 12.3439 27.7872 12.426 26.8862 12.328 25.9685 12.192 24.6896 11.5495 23.7696 10.3898 23.2427 8.70979 22.4808 6.91892 22.563 5.12577 22.5804zM68.2094 19.0297C69.6312 19.0297 71.0082 19.0297 72.4208 19.0297 72.4292 19.1513 72.4451 19.2722 72.4451 19.3931 72.4451 25.8233 72.4474 32.2534 72.439 38.6844 72.4367 40.6658 72.2135 42.6138 71.476 44.4774 70.6132 46.6557 69.0935 48.1551 66.8348 48.7786 63.8348 49.6066 60.825 49.5944 57.9344 48.3452 55.122 47.1294 53.8058 44.802 53.5225 41.8337 53.4595 41.1714 53.5134 40.4978 53.5134 39.7944 54.8706 39.7944 56.2567 39.7944 57.6982 39.7944 57.6982 40.3388 57.6534 40.8711 57.7058 41.3934 57.9556 43.8866 59.4746 45.4027 61.9634 45.6756 63.0419 45.7943 64.1173 45.7646 65.1556 45.4308 66.6426 44.9518 67.4128 43.8181 67.7955 42.3735 68.3067 40.4438 68.2094 38.4707 68.2026 36.4421 67.7773 36.7615 67.4059 37.0656 67.0095 37.334 65.8596 38.1118 64.57 38.4859 63.1999 38.5939 61.4166 38.7353 59.6584 38.6463 57.9716 37.9643 56.0098 37.1713 54.7612 35.7084 54.0185 33.7673 53.3493 32.0177 53.1564 30.1861 53.1428 28.3354 53.1207 25.3443 53.1367 22.3523 53.1374 19.3612 53.1374 19.2654 53.1473 19.1688 53.1542 19.0403 54.5546 19.0403 55.9407 19.0403 57.3822 19.0403 57.3822 19.2008 57.3822 19.3627 57.3822 19.5254 57.3822 22.4048 57.3777 25.285 57.3845 28.1644 57.3875 29.4524 57.4673 30.7328 57.8645 31.9736 58.4113 33.6813 59.5574 34.6819 61.3323 34.9633 62.4191 35.1359 63.4991 35.1252 64.5783 34.9032 66.3654 34.5352 67.4264 33.3909 67.8054 31.671 68.05 30.5617 68.1707 29.4067 68.1912 28.2693 68.2436 25.3625 68.2087 22.4542 68.2087 19.5467 68.2094 19.3817 68.2094 19.2167 68.2094 19.0297zM103.303 19.0282C104.712 19.0282 106.087 19.0282 107.497 19.0282 107.497 21.5608 107.497 24.0707 107.497 26.6558 107.801 26.6558 108.073 26.652 108.344 26.6566 110.796 26.6939 113.092 27.29 115.175 28.6099 117.916 30.348 119.476 32.864 119.874 36.0665 120.16 38.3681 119.991 40.6407 119.034 42.8016 118.077 44.964 116.485 46.5052 114.38 47.5309 112.437 48.4782 110.362 48.8462 108.216 48.8592 106.737 48.8683 105.256 48.8607 103.777 48.8607 103.627 48.8607 103.477 48.8607 103.304 48.8607 103.303 38.8988 103.303 28.9832 103.303 19.0282zM107.533 30.2697C107.533 35.2819 107.533 40.2613 107.533 45.3365 108.312 45.2521 109.063 45.2118 109.798 45.0826 111.922 44.7077 113.753 43.79 114.817 41.8321 116.053 39.5565 116.049 37.1241 115.241 34.723 114.118 31.3882 110.586 30.1146 107.533 30.2697z" fill="#000"/></svg>