<svg width="160" height="35" viewBox="0 0 160 35" fill="none" xmlns="http://www.w3.org/2000/svg"><path d="M26.249 14.9118C23.9166 15.1861 23.7077 15.5632 23.7077 17.9971V22.4192C23.7077 23.8932 23.7425 25.2644 24.0906 26.3271C21.5841 26.8756 18.4509 27.7669 15.1437 27.7669C6.19682 27.7669 0.000122024 22.3506 0.000122024 14.1234C-0.0346909 4.79922 7.45008 0 15.7704 0C19.1472 0 21.967 0.857003 23.2899 1.06268C23.4292 2.46817 23.6381 4.55926 23.9166 7.02742L23.3248 7.19882C22.5589 2.60529 19.3561 0.925563 14.9697 0.925563C8.45965 0.925563 3.82954 5.96474 3.82954 13.6092C3.82954 19.6425 7.20639 26.9099 15.4222 26.9099C16.954 26.9099 18.2421 26.6356 19.1472 26.2586C19.9827 25.8472 20.4353 25.2302 20.4353 23.5847V19.1626C20.4353 16.2488 20.1916 15.1861 16.4318 14.8776V14.3976H26.2142L26.249 14.9118Z" transform="translate(46.231)" fill="#194583"/><path d="M54.8651 0.479922C51.5927 0.479922 51.5231 2.39961 51.4534 3.22233C51.3838 4.25073 51.2446 6.10186 51.2446 9.73555V13.8492C51.2446 18.4427 50.5831 21.8707 48.2855 24.3046C46.51 26.19 43.8642 27.047 41.0792 27.047C38.7815 27.047 36.4491 26.4642 34.8129 25.1959C32.2367 23.2419 31.1923 20.1567 31.1923 15.6317V4.97062C31.1923 1.30264 30.879 0.479922 27.8503 0.479922C25.5527 0.479922 24.752 1.30264 24.6127 3.25661C24.5431 4.52498 24.4386 6.23898 24.4386 9.90695V27.0813H23.7772L5.57006 4.86778H5.50044V16.0774C5.50044 20.0196 5.63969 21.9736 5.74413 23.1048C5.953 25.4358 6.7537 25.8472 9.50392 26.0872V26.5671H0.696258V26.0872C3.09835 25.8815 4.00348 25.4358 4.21236 23.1048C4.28199 22.0078 4.45605 20.0196 4.45605 16.0774V6.65034C4.45605 3.49657 4.3168 3.08521 3.58573 2.15965C2.61097 1.06268 2.1584 0.685602 0 0.479922V1.6346e-08H5.6745L23.3594 21.1166H23.4291V9.87267C23.4291 6.27326 23.3594 4.4907 23.2202 3.29089C23.0113 1.16552 22.2106 0.651322 19.356 0.445641V1.6346e-08H37.8764V0.479922C34.8477 0.651322 34.4996 1.0284 34.4996 4.97062V14.6719C34.4996 20.0881 36.101 25.4358 42.4369 25.4358C49.3647 25.4358 50.2698 18.8541 50.2698 13.1636V9.76983C50.2698 6.17042 50.2002 4.31929 49.9913 3.05093C49.7824 1.30264 49.1906 0.822723 46.3359 0.548482V1.6346e-08H61.027L70.9138 21.4594L80.8355 1.6346e-08H86.9974V0.479922C83.3768 0.891283 83.0635 1.16552 83.2028 5.27914L83.6205 21.1166C83.7598 25.4358 83.8642 25.7101 87.4151 26.0872V26.5671H76.9365V26.0872C80.2437 25.7101 80.3829 25.4358 80.3481 21.1166L80.1741 3.80509H80L69.7302 26.4985H69.3124L59.7389 4.31929H59.6693L59.0426 16.0088C58.8686 19.0597 58.8338 21.288 58.8686 23.2762C58.9034 25.5044 59.7389 25.7786 62.4543 26.0529V26.5328H53.6467V26.0529C56.1532 25.7786 56.8146 25.093 57.0931 23.5162C57.3716 21.8707 57.5457 20.191 57.8938 15.9745L58.5205 7.26738C59.0078 1.5426 58.3812 0.479922 54.8651 0.479922Z" transform="translate(72.585 .583)" fill="#194583"/><path d="M22.6284 26.6014C19.2863 26.6014 17.7894 25.6072 16.0836 23.2076C14.5866 21.0823 13.0896 18.477 11.7319 16.4202C10.9312 15.1518 9.88686 14.569 7.79809 14.569H6.7537V21.9736C6.7537 25.5044 7.10183 25.8815 10.2698 26.1214V26.6014H0V26.1214C3.20279 25.8815 3.55091 25.5044 3.55091 21.9736V4.49069C3.55091 0.994123 3.20279 0.788443 0.174064 0.514202V1.6346e-08H9.92167C13.02 1.6346e-08 15.1784 0.239961 16.745 1.30264C18.2419 2.33105 19.5648 3.97649 19.5648 6.65034C19.5648 10.1469 17.2672 12.3408 14.2037 13.6778C14.9695 15.1518 16.6057 17.7571 17.859 19.5397C19.3211 21.6308 20.4352 23.0705 21.4099 24.1675C22.6284 25.6072 24.4038 26.1214 25.6223 25.9843C28.094 25.7101 28.3725 25.0588 28.3725 21.9393V4.86778C28.3725 0.959843 28.0244 0.788443 25.0305 0.479922V1.6346e-08H42.5762C42.5762 1.3712 42.7502 3.97649 42.8547 5.38198L42.2628 5.5191C41.8799 3.87365 41.4621 2.87953 40.9399 2.19393C40.1393 1.13124 39.0252 0.891283 35.6484 0.891283H32.8634C31.6797 0.891283 31.6101 1.06268 31.6101 2.15965V12.3751H35.7528C39.5822 12.3751 39.7911 11.8266 40.2437 9.25563H40.7311V16.6944H40.2437C39.7911 13.9177 39.4778 13.4035 35.8225 13.4035H31.5753V21.905C31.5753 23.8247 31.819 24.6474 32.4804 25.1616C33.2811 25.7786 34.6736 25.7786 36.7276 25.7786C40.5918 25.7786 41.3925 25.333 42.2976 24.2018C42.9939 23.2419 43.6902 21.7679 44.1775 20.4652L44.7694 20.6023C44.5257 21.9736 43.7598 25.1616 43.342 26.6356L22.6284 26.6014ZM8.59878 13.8149C10.6876 13.8149 12.2889 13.5749 13.4378 12.7179C14.9695 11.4838 15.805 9.76983 15.805 7.30166C15.805 2.77669 12.7763 0.788443 9.53873 0.788443C8.45953 0.788443 7.55439 0.925563 7.24108 1.06268C6.89295 1.26836 6.78851 1.64545 6.78851 2.98237V13.8149H8.59878Z" transform="translate(0 .583)" fill="#194583"/><path d="M0.278503 1.04615e-06V2.36533L0.24369 2.74241L0.417755 2.43389L1.98433 1.04615e-06H2.33246V3.15377H2.05396V0.788442L2.08877 0.411361L1.91471 0.719883L0.348129 3.15377H5.18752e-10V1.04615e-06H0.278503Z" transform="translate(.035 31.126)" fill="#194583"/><path d="M0.313316 1.04615e-06V1.40549H1.98433V1.04615e-06H2.29765V3.15377H1.98433V1.64544H0.313316V3.15377H-1.32801e-07V1.04615e-06H0.313316Z" transform="translate(7.276 31.126)" fill="#194583"/><path d="M1.8799 -1.04615e-06V0.377082H2.01915C2.92428 0.377082 3.44647 1.06268 3.44647 1.74829C3.44647 2.43389 2.92428 3.11949 2.01915 3.11949H1.8799V3.49657H1.56658V3.11949H1.42733C0.522193 3.11949 5.31202e-07 2.43389 5.31202e-07 1.74829C5.31202e-07 1.06268 0.522193 0.377082 1.42733 0.377082H1.56658V-1.04615e-06H1.8799ZM1.56658 0.651322H1.42733C0.800696 0.651322 0.348129 1.06268 0.348129 1.74829C0.348129 2.43389 0.800696 2.84525 1.42733 2.84525H1.56658V0.651322ZM1.8799 2.87953H2.01915C2.64578 2.87953 3.09835 2.46817 3.09835 1.78257C3.09835 1.09696 2.64578 0.685601 2.01915 0.685601H1.8799V2.87953Z" transform="translate(14.239 30.92)" fill="#194583"/><path d="M1.46214 -1.04615e-06C2.4369 -1.04615e-06 2.92428 0.788443 2.92428 1.61117C2.92428 2.63957 2.29765 3.22233 1.46214 3.22233C0.626633 3.22233 -5.31202e-07 2.63957 -5.31202e-07 1.61117C-5.31202e-07 0.754163 0.452569 -1.04615e-06 1.46214 -1.04615e-06ZM1.46214 2.98237C2.01915 2.98237 2.57615 2.57101 2.57615 1.61117C2.57615 0.651323 2.01915 0.239961 1.46214 0.239961C0.905136 0.239961 0.348128 0.651323 0.348128 1.61117C0.348128 2.57101 0.905136 2.98237 1.46214 2.98237Z" transform="translate(22.14 31.092)" fill="#194583"/><path d="M0.83551 1.04615e-06C1.42733 1.04615e-06 1.81027 0.377081 1.81027 0.925563C1.81027 1.47404 1.46214 1.85113 0.83551 1.85113H0.313317V3.18805H5.31202e-07V0.0342806H0.83551V1.04615e-06ZM0.313317 1.57689H0.800695C0.97476 1.57689 1.49695 1.54261 1.49695 0.925563C1.49695 0.274241 0.870321 0.27424 0.800695 0.27424H0.313317V1.57689Z" transform="translate(29.73 31.126)" fill="#194583"/><path d="M1.74064 2.87953L1.87989 2.46817L2.95909 1.04615e-06H3.44647V3.15377H3.13316V0.685603V0.239961H3.09835L2.95909 0.651321L1.87989 3.11949H1.56658L0.48738 0.651321L0.348128 0.239961H0.313315V0.685603V3.15377H-1.0624e-06V1.04615e-06H0.48738L1.56658 2.46817L1.74064 2.87953Z" transform="translate(36.101 31.126)" fill="#194583"/><path d="M1.6362 1.04615e-06L2.92428 3.15377H2.61097L2.26284 2.29677H0.661443L0.313316 3.15377H0L1.28808 1.04615e-06H1.6362ZM1.42733 0.27424L1.32289 0.582762L0.731073 2.02253H2.12359L1.53176 0.582762L1.42733 0.27424Z" transform="translate(44.038 31.126)" fill="#194583"/><path d="M0.313315 1.04615e-06V2.91381H2.01915V1.04615e-06H2.33246V2.91381H2.71541V3.87365H2.40209V3.18805H1.0624e-06V0.0342806C1.0624e-06 5.23584e-07 0.313315 1.04615e-06 0.313315 1.04615e-06Z" transform="translate(51.453 31.126)" fill="#194583"/><path d="M0.313315 1.04615e-06V2.36533L0.278505 2.74241L0.45257 2.43389L2.01915 1.04615e-06H2.36728V3.15377H2.05396V0.788442L2.08877 0.411361L1.91471 0.719883L0.34813 3.18805H1.0624e-06V0.0342806L0.313315 1.04615e-06Z" transform="translate(58.764 31.126)" fill="#194583"/><path d="M1.46214 -1.04615e-06C2.4369 -1.04615e-06 2.92428 0.788443 2.92428 1.61117C2.92428 2.63957 2.29765 3.22233 1.46214 3.22233C0.626631 3.22233 0 2.63957 0 1.61117C0.0348129 0.754163 0.487379 -1.04615e-06 1.46214 -1.04615e-06ZM1.46214 2.98237C2.01915 2.98237 2.57615 2.57101 2.57615 1.61117C2.57615 0.651323 2.01915 0.239961 1.46214 0.239961C0.905134 0.239961 0.348129 0.651323 0.348129 1.61117C0.348129 2.57101 0.905134 2.98237 1.46214 2.98237Z" transform="translate(65.796 31.092)" fill="#194583"/><path d="M0.313315 1.04615e-06V1.40549H1.98433V1.04615e-06H2.29765V3.15377H1.98433V1.64544H0.313315V3.15377H1.0624e-06V1.04615e-06H0.313315Z" transform="translate(73.386 31.126)" fill="#194583"/><path d="M0.313317 1.04615e-06V1.40549H1.98434V1.04615e-06H2.29765V3.15377H1.98434V1.64544H0.313317V3.15377H-2.12481e-06V1.04615e-06H0.313317Z" transform="translate(80.557 31.126)" fill="#194583"/><path d="M1.46214 -1.04615e-06C2.4369 -1.04615e-06 2.92428 0.788443 2.92428 1.61117C2.92428 2.63957 2.29765 3.22233 1.46214 3.22233C0.661447 3.22233 -2.12481e-06 2.63957 -2.12481e-06 1.61117C-2.12481e-06 0.754163 0.487382 -1.04615e-06 1.46214 -1.04615e-06ZM1.46214 2.98237C2.01915 2.98237 2.57615 2.57101 2.57615 1.61117C2.57615 0.651323 2.01915 0.239961 1.46214 0.239961C0.905137 0.239961 0.348127 0.651323 0.348127 1.61117C0.348127 2.57101 0.905137 2.98237 1.46214 2.98237Z" transform="translate(87.52 31.092)" fill="#194583"/><path d="M1.53177 1.04615e-06V0.27424H0.278505V1.40549H1.46214V1.67972H0.278505V2.91381H1.63621V3.18805H-4.24962e-06V0.0342806L1.53177 1.04615e-06Z" transform="translate(95.144 31.126)" fill="#194583"/><path d="M1.63621 1.04615e-06L2.92429 3.15377H2.61096L2.26283 2.29677H0.661449L0.31332 3.15377H-4.24962e-06L1.28808 1.04615e-06H1.63621ZM1.42733 0.27424L1.32289 0.582762L0.731068 2.02253H2.12358L1.53177 0.582762L1.42733 0.27424Z" transform="translate(105.587 31.126)" fill="#194583"/><path d="M1.67102 1.04615e-06V0.27424H0.313312V3.18805H-2.12481e-06V0.0342806H1.67102V1.04615e-06Z" transform="translate(112.759 31.126)" fill="#194583"/><path d="M1.53176 1.04615e-06V0.27424H0.278499V1.40549H1.46215V1.67972H0.278499V2.91381H1.63621V3.18805H0V0.0342806L1.53176 1.04615e-06Z" transform="translate(118.712 31.126)" fill="#194583"/><path d="M0.313312 1.04615e-06V1.40549H1.98434V1.04615e-06H2.29765V3.15377H1.98434V1.64544H0.313312V3.15377H-2.12481e-06V1.04615e-06H0.313312Z" transform="translate(124.769 31.126)" fill="#194583"/><path d="M2.22803 1.04615e-06V0.27424H1.28808V3.18805H0.974763V0.27424H-4.24962e-06V1.04615e-06H2.22803Z" transform="translate(131.349 31.126)" fill="#194583"/><path d="M2.40209 3.11949C2.22802 3.18805 1.94952 3.25661 1.60139 3.25661C0.487382 3.25661 0 2.50245 0 1.67973C0 0.822722 0.452572 -1.04615e-06 1.63621 -1.04615e-06C1.91471 -1.04615e-06 2.15839 0.0342796 2.36727 0.13712L2.33247 0.411362C1.98434 0.274241 1.67102 0.274241 1.60139 0.274241C0.800698 0.274241 0.313314 0.891283 0.313314 1.67973C0.313314 2.50245 0.870322 2.98237 1.56658 2.98237C1.84508 2.98237 2.1584 2.91381 2.40209 2.84525V3.11949Z" transform="translate(137.685 31.092)" fill="#194583"/><path d="M2.26284 1.04615e-06V0.27424H1.28808V3.18805H0.974756V0.27424H0V1.04615e-06H2.26284Z" transform="translate(143.951 31.126)" fill="#194583"/><path d="M0.835505 1.04615e-06C1.49695 1.04615e-06 1.77546 0.377081 1.77546 0.788442C1.77546 1.09696 1.6362 1.3712 1.21845 1.50832C1.60139 1.57688 1.87989 1.88541 1.87989 2.26249C1.87989 3.15377 0.974756 3.15377 0.835505 3.15377H-2.12481e-06V1.04615e-06H0.835505ZM0.278507 1.40549H0.8007C1.21846 1.40549 1.46214 1.13124 1.46214 0.788442C1.46214 0.411361 1.18364 0.239961 0.8007 0.239961H0.278507V1.40549ZM0.278507 2.91381H0.765885C1.04439 2.91381 1.53176 2.87953 1.53176 2.29677C1.53176 1.91969 1.21846 1.67972 0.8007 1.67972H0.278507V2.91381Z" transform="translate(150.531 31.126)" fill="#194583"/><path d="M1.46214 -1.04615e-06C2.4369 -1.04615e-06 2.92428 0.788443 2.92428 1.61117C2.92428 2.63957 2.29765 3.22233 1.46214 3.22233C0.661443 3.22233 4.24962e-06 2.63957 4.24962e-06 1.61117C4.24962e-06 0.754163 0.452565 -1.04615e-06 1.46214 -1.04615e-06ZM1.46214 2.98237C2.01915 2.98237 2.57616 2.57101 2.57616 1.61117C2.57616 0.651323 2.01915 0.239961 1.46214 0.239961C0.905133 0.239961 0.348133 0.651323 0.348133 1.61117C0.348133 2.57101 0.905133 2.98237 1.46214 2.98237Z" transform="translate(156.728 31.092)" fill="#194583"/></svg>