<svg width="184" height="75" viewBox="0 0 184 75" fill="none" xmlns="http://www.w3.org/2000/svg"><path fill-rule="evenodd" clip-rule="evenodd" d="M33.8316 17.1354C33.8316 9.70099 41.6892 6.51543 44.0902 5.92162C46.1085 5.42243 57.845 4.0534 61.5337 3.62981C62.1266 3.56173 62.6429 4.02578 62.6429 4.62253V35.9584C62.6429 36.4653 62.2637 36.892 61.7603 36.9515L50.413 38.2923C49.9167 38.351 49.4533 38.0342 49.3277 37.5505L48.4555 34.1908L46.718 38.2283C46.5775 38.5549 46.2798 38.7816 45.9268 38.8245C43.6722 39.098 35.368 40.0946 34.0498 40.0946C32.5219 40.0946 31.6489 39.5373 31.8671 38.3947C32.0442 37.4679 36.6727 30.6755 38.415 28.1425C38.7601 27.6409 38.5923 26.9314 38.1094 26.5606C36.5972 25.3994 33.8316 22.5372 33.8316 17.1354ZM70.5006 34.7936C70.5006 35.3924 71.0233 35.857 71.6179 35.7867L84.2419 34.2951C84.7453 34.2356 85.1246 33.8089 85.1246 33.302V15.1798C85.1246 14.6737 85.5027 14.2474 86.0052 14.187L89.7006 13.7427C90.2031 13.6823 90.5813 13.256 90.5813 12.7499V1.00016C90.5813 0.396546 90.0506 -0.0694745 89.452 0.00854834L65.6964 3.10518C65.1983 3.17011 64.8256 3.59447 64.8256 4.09679V15.3572C64.8256 15.955 65.3466 16.4192 65.9405 16.3506L69.3858 15.9523C69.9796 15.8837 70.5006 16.3479 70.5006 16.9457V34.7936Z" transform="translate(0 .139)" fill="#E40031"/><path d="M29.8648 7.77594C30.4634 7.69792 30.9941 8.16394 30.9941 8.76755V39.698C30.9941 40.2049 30.6148 40.6317 30.1114 40.6911L18.1423 42.1054C17.5476 42.1757 17.0249 41.7111 17.0249 41.1123V23.0992C17.0249 22.4905 16.4858 22.0231 15.8832 22.1093L14.8275 22.2604C14.335 22.3309 13.9692 22.7527 13.9692 23.2503V41.7097C13.9692 42.2166 13.5899 42.6433 13.0865 42.7028L1.11734 44.1171C.522685 44.1873 0 43.7228 0 43.124V13.4251C0 12.4205.745274 11.5718 1.74148 11.4419L29.8648 7.77594zM182.77 23.8492C183.402 23.77 183.947 24.2952 183.89 24.9303L181.89 47.3721C181.848 47.8452 181.478 48.2234 181.006 48.2769L171.237 49.3849C170.69 49.4469 170.196 49.056 170.131 48.51L167.53 26.7599C167.464 26.2136 167.853 25.7172 168.398 25.6489L182.77 23.8492zM180.762 50.4949C181.334 50.428 181.844 50.8574 181.876 51.4328L182.421 61.2493C182.45 61.7732 182.069 62.2304 181.548 62.2966L169.847 63.7851C169.25 63.8611 168.721 63.3955 168.721 62.7931V52.7921C168.721 52.2847 169.101 51.8578 169.605 51.7989L180.762 50.4949zM155.285 27.29C155.741 27.2334 156.177 27.495 156.342 27.924L167.607 57.2641C167.84 57.8721 167.439 58.5375 166.793 58.6153L154.456 60.1007C153.991 60.1567 153.55 59.8827 153.394 59.4414L152.631 57.2851C152.469 56.8275 152.002 56.5523 151.523 56.6322L147.809 57.2523C147.392 57.322 147.063 57.6472 146.989 58.0642L146.587 60.334C146.51 60.7675 146.159 61.0997 145.722 61.1523L132.965 62.6884C132.237 62.7761 131.665 62.0753 131.897 61.3792L142.548 29.4436C142.67 29.078 142.991 28.815 143.373 28.7675L155.285 27.29zM100.528 34.082C100.027 34.1441 99.6507 34.5697 99.6507 35.0744V65.5721C99.6507 66.1718 100.175 66.6366 100.77 66.5649L115.872 64.7465C116.468 64.6748 116.992 65.1396 116.992 65.7393V69.9904C116.992 70.6032 117.538 71.0718 118.144 70.9788L126.406 69.7096C126.788 69.6509 127.102 69.3774 127.213 69.0071L132.226 52.202C132.441 51.483 131.799 50.8 131.068 50.9691 130.455 51.1108 129.87 50.6452 129.87 50.0158V31.5742C129.87 30.9731 129.343 30.5078 128.746 30.5818L117.869 31.9311C117.368 31.9932 116.992 32.4188 116.992 32.9235V51.1105C116.992 51.5744 116.673 51.9774 116.221 52.0838L114.511 52.487C113.883 52.635 113.281 52.1587 113.281 51.5137V33.6318C113.281 33.0307 112.755 32.5654 112.158 32.6394L100.528 34.082zM65.7025 38.4016C65.2017 38.4638 64.8256 38.8894 64.8256 39.394V70.8929L77.4542 69.3723C77.7503 69.3367 78.015 69.1707 78.1761 68.9198L84.4697 59.1179V67.4C84.4697 67.9996 84.9939 68.4645 85.5893 68.3928L96.4671 67.083C96.9695 67.0225 97.3476 66.5962 97.3476 66.0902V35.6082C97.3476 35.007 96.821 34.5418 96.2245 34.6158L85.5699 35.9373C85.2866 35.9725 85.0318 36.127 84.8698 36.362L77.9217 46.4357V38.0177C77.9217 37.4166 77.3952 36.9513 76.7986 37.0253L65.7025 38.4016zM32.744 42.4897C32.2432 42.5519 31.8671 42.9774 31.8671 43.4821V73.7337C31.8671 74.3334 32.3913 74.7982 32.9867 74.7265L44.5193 73.3379C45.0217 73.2774 45.3998 72.8512 45.3998 72.3451V64.0641C45.3998 63.6002 45.7188 63.1972 46.1703 63.0908L47.8809 62.6876C48.5087 62.5396 49.1103 63.0159 49.1103 63.6609V71.6575C49.1103 72.2572 49.6345 72.722 50.2299 72.6503L62.6429 71.1557 62.8407 39.8946C62.8446 39.291 62.3167 38.8216 61.7177 38.8959L49.9872 40.3509C49.4864 40.4131 49.1103 40.8386 49.1103 41.3433V48.7766C49.1103 49.2068 48.8351 49.5888 48.4271 49.7251L47.153 50.1505C46.5054 50.3668 45.8363 49.8848 45.8363 49.202V41.9975C45.8363 41.3964 45.3098 40.9311 44.7132 41.0051L32.744 42.4897z" transform="translate(0 .139)" fill="#E40031"/></svg>