<svg width="184" height="74" viewBox="0 0 184 74" fill="none" xmlns="http://www.w3.org/2000/svg"><path d="M2.80459 14.2848H0V58.2181H2.80459V14.2848zM183.333 14.2848H180.529V58.2181H183.333V14.2848zM141.641 0H138.836V72.5H141.641V0z" transform="translate(.333 .833)" fill="#4481C3"/><path d="M10.8097 19.1614V16.9541H22.422C22.422 17.1324 22.422 17.2991 22.422 17.4657 22.422 17.6324 22.422 17.7902 22.422 17.9423V18.9392C22.422 22.0324 22.0663 24.3187 21.349 25.7834 20.6317 27.2482 18.7943 27.9937 15.8133 27.9937L11.4242 28.0229H10.6892C10.4305 28.0229 10.1659 28.0229 9.90133 28.058H8.34616C5.02808 28.0522 2.80753 27.4489 1.68452 26.2483.561506 25.0476 0 22.3628 0 18.1937V16.9453C0 13.1563.351799 10.3447 1.0554 8.51066 1.759 6.67657 3.80413 5.7605 7.19081 5.76245L11.6887 5.66305C11.8653 5.68404 12.043 5.69478 12.2208 5.69521 12.4065 5.69408 12.592 5.68334 12.7765 5.66305H14.7432C15.0372 5.66305 15.3312 5.66305 15.6252 5.69521 15.9192 5.72737 16.2131 5.73614 16.5071 5.74491 16.8026 5.75518 17.0971 5.7835 17.3891 5.8297 19.153 5.98562 20.374 6.57035 21.0521 7.58387 21.7302 8.59739 22.0879 10.1722 22.1251 12.3084L19.982 12.2763C19.982 10.2297 19.5969 9.00767 18.8355 8.64222 18.074 8.27677 16.9687 8.07504 15.5429 8.02826H15.3018L11.6652 7.96102C11.4868 7.98312 11.3071 7.99386 11.1272 7.99318 10.9571 7.99466 10.7872 7.98391 10.6186 7.96102H8.67836C8.38438 7.96102 8.0904 7.96102 7.79641 7.99318 7.50243 8.02534 7.20845 8.03411 6.91447 8.04288 6.61909 8.05429 6.32462 8.0826 6.03252 8.12766 5.99243 8.12388 5.95208 8.12388 5.91199 8.12766 5.87305 8.14003 5.83233 8.14596 5.79145 8.14521 4.93704 8.2127 4.11328 8.49214 3.3955 8.95797 2.77813 9.39067 2.41948 10.642 2.3107 12.7178 2.29306 13.1797 2.27542 13.6475 2.26072 14.1152 2.24603 14.583 2.23133 15.0625 2.23133 15.5449 2.23133 16.0273 2.20487 16.5009 2.20487 16.9716V18.3691C2.20487 21.0374 2.40086 22.9037 2.79283 23.9679 3.18481 25.0321 4.56653 25.5846 6.93799 25.6255L11.4859 25.6577C11.6455 25.6809 11.8067 25.6926 11.968 25.6928H12.4825C12.6433 25.7136 12.8054 25.7243 12.9676 25.725H14.2464C14.5051 25.725 14.7667 25.725 15.0372 25.6928L15.8221 25.6255 16.6159 25.5612C18.2916 25.3361 19.2852 24.7718 19.5969 23.8538 19.9572 22.6466 20.1424 21.3943 20.1466 20.135 20.1466 19.98 20.1466 19.8192 20.1613 19.6526 20.176 19.4859 20.1613 19.3164 20.1613 19.141L10.8097 19.1614zM42.0428 5.88526C44.1987 5.90865 45.8225 6.33063 46.9141 7.15119 48.0058 7.97176 48.5467 9.73178 48.5369 12.4313 48.5369 14.3608 48.2831 15.7047 47.7755 16.4629 47.2669 17.2201 46.1645 17.7406 44.4564 18.0241 45.4228 18.1249 46.3501 18.458 47.1581 18.9948 47.846 19.486 48.1929 20.4566 48.1929 21.9184V27.8271H45.894V22.9592C45.894 21.2928 45.5726 20.212 44.9297 19.7169 44.2888 19.2228 43.257 18.9802 41.8429 18.9802H28.7666V27.8271H26.4382V5.88526H42.0428zM41.6107 16.7407C43.2393 16.7621 44.3986 16.4883 45.0885 15.9191 45.7784 15.35 46.1233 14.1328 46.1233 12.2675 46.1233 10.4256 45.7313 9.27959 44.9474 8.82935 44.1634 8.37911 43.0335 8.15497 41.5577 8.15692H28.7695V16.7407H41.6107zM51.938 17.0038V15.922C51.938 15.5497 51.9468 15.1872 51.9644 14.8344 51.9644 14.0948 51.9909 13.3492 52.0438 12.6037 52.0933 11.8784 52.1816 11.1562 52.3084 10.4402 52.6573 8.49114 53.3707 7.23204 54.4486 6.66291 55.6006 6.07622 56.8733 5.76205 58.1675 5.74489 58.8142 5.7215 59.461 5.70688 60.1107 5.69518 60.7604 5.68349 61.4072 5.67764 62.0539 5.67764H65.9169C69.5622 5.67764 71.8965 6.27991 72.9195 7.48444 73.9426 8.68898 74.4561 11.5229 74.46 15.9863 74.46 16.9716 74.46 17.9539 74.4335 18.9392 74.4071 19.9245 74.363 20.9068 74.2748 21.895 74.0984 23.9941 73.581 25.4715 72.7225 26.3272 71.8641 27.1828 70.5902 27.6857 68.9008 27.8358 68.1806 27.922 67.4565 27.9718 66.7312 27.9849 66.006 27.9849 65.2838 27.9898 64.5645 27.9995H60.6634C60.0519 27.9995 59.4316 27.9995 58.8113 27.9673 58.191 27.9352 57.5707 27.8884 56.9563 27.8036 56.8664 27.7785 56.7733 27.7667 56.6799 27.7685 56.5879 27.7681 56.4961 27.7573 56.4065 27.7364 55.7335 27.6028 55.0857 27.3651 54.4868 27.0318 53.8364 26.6511 53.316 26.0848 52.9934 25.4062 52.6692 24.7431 52.4462 24.0356 52.3319 23.3071 52.1909 22.4922 52.0928 21.6705 52.0379 20.8454 51.985 20.1671 51.9556 19.4947 51.9439 18.8427 51.9321 18.1907 51.9439 17.5826 51.9439 17.0388L51.938 17.0038zM54.1458 18.5328C54.1458 20.9458 54.3467 22.7204 54.7485 23.8567 55.1502 24.993 56.4398 25.5846 58.6173 25.6314L63.1358 25.6957H64.7615C65.1113 25.7191 65.4671 25.7308 65.8257 25.7308 66.1844 25.7308 66.5489 25.7308 66.9164 25.6957L67.9836 25.6314C68.3422 25.6109 68.695 25.5817 69.0448 25.532 70.4481 25.3604 71.3232 24.7689 71.6701 23.7573 72.0538 22.5277 72.2316 21.2436 72.1963 19.9566 72.1963 19.5853 72.1963 19.2111 72.211 18.8398 72.2257 18.4685 72.2257 18.0826 72.2257 17.6879 72.2257 17.2932 72.2522 16.9453 72.2522 16.5711V15.4309C72.2522 15.1005 72.2522 14.7467 72.2375 14.3637 72.2228 13.9807 72.2169 13.6007 72.1963 13.2264 72.164 12.4809 72.0964 11.7646 72.0023 11.0893 71.938 10.5186 71.7738 9.96352 71.5172 9.44912 71.3973 9.21499 71.2314 9.00721 71.0292 8.83808 70.8428 8.68344 70.6348 8.55641 70.4118 8.46093 70.3932 8.43892 70.3702 8.421 70.3442 8.40831 70.314 8.40455 70.2834 8.40455 70.2531 8.40831 69.969 8.29867 69.673 8.22214 69.3711 8.18026 69.0566 8.13933 68.7391 8.10133 68.4275 8.08379 68.2443 8.05888 68.0597 8.04618 67.8748 8.04578H67.3103L63.1946 7.98146 59.12 8.08379C57.2287 8.12472 55.9548 8.44729 55.2982 9.0515 54.6426 9.65377 54.284 11.1916 54.234 13.6679L54.1546 16.9248 54.1458 18.5328zM100.195 5.88526V21.0618C100.195 24.3947 99.5943 26.3701 98.3929 26.988 97.1915 27.6058 95.3071 27.9557 92.7396 28.0376H92.5985C91.9792 28.0609 91.356 28.0726 90.7288 28.0726H88.8297C87.9477 28.0726 87.0658 28.0726 86.1603 28.0522 85.2548 28.0317 84.3582 28.0142 83.4586 27.9703 81.6222 27.8826 80.2728 27.3895 79.4105 26.491 78.5481 25.5924 78.116 24.0556 78.114 21.8804V5.88526H80.3924V21.5705C80.3924 23.4767 80.7628 24.6345 81.5154 25.0408 82.268 25.4472 83.3822 25.6723 84.8638 25.7162L88.8826 25.7484 93.2453 25.649C94.7946 25.6285 95.9646 25.4092 96.7466 24.9941 97.5286 24.5789 97.9226 23.3656 97.9226 21.3717V5.88526H100.195zM120.318 5.88232C122.413 5.90571 123.906 6.35497 124.795 7.23011 125.685 8.10524 126.13 9.75027 126.13 12.1652 126.13 12.516 126.13 12.899 126.101 13.3171 126.071 13.7352 126.051 14.1503 126.01 14.5684 125.935 15.1858 125.813 15.7966 125.645 16.3957 125.507 16.9215 125.251 17.4093 124.895 17.8224 124.494 18.2849 123.98 18.6364 123.402 18.8427 122.831 19.0418 122.239 19.1752 121.638 19.2403 121.385 19.2403 121.138 19.2404 120.891 19.255 120.644 19.2696 120.406 19.2725 120.174 19.2725H106.475V27.827H104.099V5.88232H120.318zM118.737 17.0359C120.553 17.0554 121.827 16.8196 122.558 16.3284 123.289 15.8373 123.655 14.4934 123.655 12.2967 123.655 10.8057 123.406 9.74248 122.908 9.10707 122.41 8.47167 121.468 8.15397 120.08 8.15397H106.475V17.0359H118.737zM161.999 5.87942C163.637 5.90281 164.939 6.32089 165.88 7.14535 166.82 7.96981 167.305 9.39069 167.305 11.408 167.305 13.0978 167.076 14.2527 166.62 14.8813 166.165 15.5098 165.203 15.9571 163.739 16.2437 165.392 16.3353 166.509 16.7572 167.091 17.5096 167.673 18.2619 167.967 19.5844 167.973 21.4769 167.973 23.9328 167.459 25.6051 166.432 26.4939 165.403 27.371 163.848 27.8212 161.755 27.8212H145.921V5.89404L161.999 5.87942zM161.088 15.2906C162.343 15.314 163.293 15.0859 163.939 14.6152 164.586 14.1445 164.909 13.1534 164.909 11.636 164.909 10.1898 164.615 9.24743 164.028 8.80889 163.44 8.37035 162.581 8.14815 161.42 8.14815H148.22V15.2906H161.088zM161.285 25.6197C162.641 25.6431 163.691 25.4248 164.436 24.9648 165.189 24.5 165.565 23.4709 165.565 21.8687V21.3278C165.565 21.1407 165.565 20.9478 165.536 20.7431 165.497 20.2286 165.399 19.7203 165.242 19.2287 165.098 18.7591 164.796 18.3531 164.386 18.0797 164.07 17.8839 163.722 17.7444 163.357 17.6675 163 17.5901 162.637 17.5412 162.272 17.5213H148.229V25.611L161.285 25.6197zM141.805 5.88232H139.121V27.8241H141.805V5.88232zM142.549 0H138.377V4.14862H142.549V0z" transform="translate(8.124 20.22)" fill="#000201"/><path d="M4.17162 0H0V4.14862H4.17162V0Z" transform="translate(146.501 20.22)" fill="#F04A42"/></svg>