<svg width="150" height="72" viewBox="0 0 150 72" fill="none" xmlns="http://www.w3.org/2000/svg"><path d="M113.571 20.2503L135.034 17.2143C135.034 17.2143 125.385 25.0242 115.21 32.6483L118.083 51.2477L103.731 40.9248C100.512 43.1203 97.6582 44.9179 95.5557 45.978C54.277 66.791 30.6955 68.8133 30.6955 68.8133C30.6955 68.8133 76.9724 53.5786 92.7626 33.0359L81.3277 24.8114L99.2889 22.2707C105.884 10.7288 111.672 0 111.672 0L113.571 20.2503Z" transform="translate(14.966 .667)" fill="#DC0129"/><path fill-rule="evenodd" clip-rule="evenodd" d="M6.98224 35.6143L0 57.1761L7.5092 55.5513L9.1091 51.0281L13.5693 50.1498C13.5693 50.1498 22.3992 48.7446 24.1524 41.1474C25.9968 33.1551 15.5893 34.3847 15.5893 34.3847L6.98224 35.6143ZM15.1501 38.9078L12.8666 39.2591L10.6212 46.1537L14.4036 45.4071C14.4036 45.4071 17.258 44.2214 17.5654 41.367C17.8728 38.5126 15.1501 38.9078 15.1501 38.9078Z" transform="translate(14.966 .667)" fill="#DC0129"/><path d="M28.5877 32.4964L35.4821 31.4864 31.486 43.3432C31.486 43.3432 31.1346 45.1875 31.486 45.5389 31.8373 45.8902 33.1547 45.7145 33.1547 45.7145L35.3942 45.2315 33.989 49.7107 29.0707 50.8964C29.0707 50.8964 26.3481 51.6429 24.8111 49.8863 23.2741 48.1298 24.5037 45.1436 24.5037 45.1436L28.5877 32.4964zM58.8001 28.1928L53.0035 45.5389 41.3226 48.1737C41.3226 48.1737 37.7217 48.3494 36.8434 46.1537 35.8773 43.7384 37.546 40.4887 37.546 40.4887L40.7078 30.7837 47.207 29.8176 43.6061 40.6205C43.6061 40.6205 43.4304 41.4109 43.5182 42.2892 43.6061 43.1675 44.9235 42.9918 44.9235 42.9918L47.9362 42.377 52.2131 29.115 58.8001 28.1928zM74.2577 25.9093L72.9842 29.9055 67.1437 30.9155C67.1437 30.9155 64.6845 31.179 64.421 32.2329 64.2234 33.0234 66.1337 33.2868 66.1337 33.2868L68.1976 33.7699C68.1976 33.7699 71.2341 34.5164 70.8763 37.6343 70.2176 42.0257 64.7723 42.9918 64.7723 42.9918L54.9357 45.1436 56.2971 40.7961 62.7084 39.4348C62.7084 39.4348 64.7723 39.0396 64.9919 38.293 65.2115 37.5465 64.3332 37.3708 64.3332 37.3708L60.8641 36.4487C60.8641 36.4487 58.4927 35.746 58.8001 33.1551 59.6345 28.1928 64.7723 27.4463 64.7723 27.4463L74.2577 25.9093z" transform="translate(14.966 .667)" fill="#DC0129"/><path d="M64.1931 10.232L65.8618 5.40143 60.3287 5.75274C60.3287 5.75274 56.7278 6.49928 54.4882 8.65106 52.3804 10.4076 51.0191 13.6573 51.0191 13.6573L47.4182 24.9871 54.4443 24.1088 56.9913 15.8969C56.9913 15.8969 57.7378 12.779 59.3626 11.4616 60.9874 10.1441 64.1931 10.232 64.1931 10.232zM43.8612 6.93842L51.0191 6.54319 44.8712 25.3384 31.6972 26.9632C31.6972 26.9632 28.755 27.2267 27.1302 25.6458 25.5054 24.0649 26.208 21.2983 26.208 21.2983L30.5554 7.8167 37.9329 7.28973 34.2441 18.4878C34.2441 18.4878 33.805 20.2444 34.0246 21.0348 34.2441 21.8253 35.8689 21.6496 35.8689 21.6496L39.2503 21.2983 43.8612 6.93842zM29.4576 5.3136L31.258 0 18.084.614796C18.084.614796 7.58867 1.31742 6.0517 8.43149 5.43692 11.9885 8.51086 13.0425 8.51086 13.0425 8.51086 13.0425.650349 15.5456.0355602 22.3962-.764455 31.3107 12.1996 29.8176 12.1996 29.8176L22.4753 28.2367 24.3197 22.3962 13.6048 23.6697C13.6048 23.6697 7.86328 24.4162 8.20346 20.7713 8.51086 17.4778 14.044 16.4897 14.044 16.4897L21.9484 15.8091 23.7488 10.3198 16.7666 10.8907C16.7666 10.8907 12.866 11.5494 13.6048 8.65106 14.1757 6.41145 19.4892 5.75274 19.4892 5.75274L29.4576 5.3136z" transform="translate(0 1.808)" fill="#0039A0"/><path fill-rule="evenodd" clip-rule="evenodd" d="M85.9742 3.86443L80.5289 20.7713 85.9742 20.0248 87.19 16.3141 90.5851 15.8969C90.5851 15.8969 96.3817 15.5456 98.3578 9.26586 100.334 2.98615 93.4834 3.33747 93.4834 3.33747L85.9742 3.86443zM92.0782 7.15799H90.1899L88.4058 12.6033 91.0682 12.1203C91.0682 12.1203 92.6051 12.0324 93.5712 9.48543 94.5373 6.93842 92.0782 7.15799 92.0782 7.15799zM116.494 1.75656L111.576 16.7752 103.803 17.7413C103.803 17.7413 97.8396 17.4339 99.1482 10.8907 100.466 3.03007 107.755 2.45919 107.755 2.45919L116.494 1.75656zM107.729 13.6133L110.083 5.88448H108.546C108.546 5.88448 104.901 6.54319 104.198 10.8907 103.803 14.1403 105.955 13.7012 105.955 13.7012L107.729 13.6133zM73.6784 4.65489C79.0359 3.55704 83.559 5.26957 82.3294 10.9784 81.0998 16.6873 75.6545 22.3961 68.804 22.7474 62.1594 23.0881 62.7034 17.9756 62.9023 16.1051L62.9027 16.1017C62.9087 16.045 62.9145 15.9913 62.9196 15.9408 63.6662 11.3298 68.321 5.75274 73.6784 4.65489zM75.6106 13.35C75.6106 13.35 77.5428 8.29981 74.5567 8.51938 71.5706 8.73895 70.1214 12.8669 70.1214 12.8669 70.1214 12.8669 67.8818 18.0488 70.1214 18.3123 73.7663 18.7409 75.6106 13.35 75.6106 13.35z" transform="translate(0 1.808)" fill="#0039A0"/><path d="M7.23737 69.6916C7.23737 69.6916 37.362 61.1283 58.4844 53.7069C79.6067 46.2854 102.047 35.3069 102.047 35.3069C102.047 35.3069 85.8425 48.5689 59.8896 57.703C33.9367 66.8372 7.23737 69.6916 7.23737 69.6916Z" transform="translate(0 1.808)" fill="#0039A0"/></svg>