<svg xmlns="http://www.w3.org/2000/svg" width="75" height="26" viewBox="0 0 124 33"><path fill="#253B80" d="M46.211 6.749h-6.839c-.468 0-.866.34-.939.802l-2.766 17.537c-.055.346.213.658.564.658h3.265c.468 0 .866-.34.939-.803l.746-4.73c.072-.463.471-.803.938-.803h2.165c4.505 0 7.105-2.18 7.784-6.5.306-1.89.013-3.375-.872-4.415C50.224 7.353 48.5 6.749 46.211 6.749zM47 13.154c-.374 2.454-2.249 2.454-4.062 2.454h-1.032l.724-4.583c.043-.277.283-.481.563-.481h.473c1.235 0 2.4 0 3.002.704C47.027 11.668 47.137 12.292 47 13.154zM66.654 13.075h-3.275c-.279 0-.52.204-.563.481l-.145.916-.229-.332c-.709-1.029-2.29-1.373-3.868-1.373-3.619 0-6.71 2.741-7.312 6.586-.313 1.918.132 3.752 1.22 5.031.998 1.176 2.426 1.666 4.125 1.666 2.916 0 4.533-1.875 4.533-1.875l-.146.91c-.055.348.213.66.562.66h2.95c.469 0 .865-.34.939-.803l1.77-11.209C67.271 13.388 67.004 13.075 66.654 13.075zM62.089 19.449c-.316 1.871-1.801 3.127-3.695 3.127-.951 0-1.711-.305-2.199-.883-.484-.574-.668-1.391-.514-2.301.295-1.855 1.805-3.152 3.67-3.152.93 0 1.686.309 2.184.892C62.034 17.721 62.232 18.543 62.089 19.449zM84.096 13.075h-3.291c-.314 0-.609.156-.787.417l-4.539 6.686-1.924-6.425c-.121-.402-.492-.678-.912-.678h-3.234c-.393 0-.666.384-.541.754l3.625 10.638-3.408 4.811c-.268.379.002.9.465.9h3.287c.312 0 .604-.152.781-.408L84.564 13.97C84.826 13.592 84.557 13.075 84.096 13.075z"/><path fill="#179BD7" d="M94.992 6.749h-6.84c-.467 0-.865.34-.938.802l-2.766 17.537c-.055.346.213.658.562.658h3.51c.326 0 .605-.238.656-.562l.785-4.971c.072-.463.471-.803.938-.803h2.164c4.506 0 7.105-2.18 7.785-6.5.307-1.89.012-3.375-.873-4.415C99.004 7.353 97.281 6.749 94.992 6.749zM95.781 13.154c-.373 2.454-2.248 2.454-4.062 2.454h-1.031l.725-4.583c.043-.277.281-.481.562-.481h.473c1.234 0 2.4 0 3.002.704C95.809 11.668 95.918 12.292 95.781 13.154zM115.434 13.075h-3.273c-.281 0-.52.204-.562.481l-.145.916-.23-.332c-.709-1.029-2.289-1.373-3.867-1.373-3.619 0-6.709 2.741-7.311 6.586-.312 1.918.131 3.752 1.219 5.031 1 1.176 2.426 1.666 4.125 1.666 2.916 0 4.533-1.875 4.533-1.875l-.146.91c-.055.348.213.66.564.66h2.949c.467 0 .865-.34.938-.803l1.771-11.209C116.053 13.388 115.785 13.075 115.434 13.075zM110.869 19.449c-.314 1.871-1.801 3.127-3.695 3.127-.949 0-1.711-.305-2.199-.883-.484-.574-.666-1.391-.514-2.301.297-1.855 1.805-3.152 3.67-3.152.93 0 1.686.309 2.184.892C110.816 17.721 111.014 18.543 110.869 19.449zM119.295 7.23l-2.807 17.858c-.055.346.213.658.562.658h2.822c.469 0 .867-.34.939-.803l2.768-17.536c.055-.346-.213-.659-.562-.659h-3.16C119.578 6.749 119.338 6.953 119.295 7.23z"/><path fill="#253B80" d="M7.266,29.154l0.523-3.322l-1.165-0.027H1.061L4.927,1.292C4.939,1.218,4.978,1.149,5.035,1.1	c0.057-0.049,0.13-0.076,0.206-0.076h9.38c3.114,0,5.263,0.648,6.385,1.927c0.526,0.6,0.861,1.227,1.023,1.917	c0.17,0.724,0.173,1.589,0.007,2.644l-0.012,0.077v0.676l0.526,0.298c0.443,0.235,0.795,0.504,1.065,0.812	c0.45,0.513,0.741,1.165,0.864,1.938c0.127,0.795,0.085,1.741-0.123,2.812c-0.24,1.232-0.628,2.305-1.152,3.183	c-0.482,0.809-1.096,1.48-1.825,2c-0.696,0.494-1.523,0.869-2.458,1.109c-0.906,0.236-1.939,0.355-3.072,0.355h-0.73	c-0.522,0-1.029,0.188-1.427,0.525c-0.399,0.344-0.663,0.814-0.744,1.328l-0.055,0.299l-0.924,5.855l-0.042,0.215	c-0.011,0.068-0.03,0.102-0.058,0.125c-0.025,0.021-0.061,0.035-0.096,0.035H7.266z"/><path fill="#179BD7" d="M23.048,7.667L23.048,7.667L23.048,7.667c-0.028,0.179-0.06,0.362-0.096,0.55	c-1.237,6.351-5.469,8.545-10.874,8.545H9.326c-0.661,0-1.218,0.48-1.321,1.132l0,0l0,0L6.596,26.83l-0.399,2.533	c-0.067,0.428,0.263,0.814,0.695,0.814h4.881c0.578,0,1.069-0.42,1.16-0.99l0.048-0.248l0.919-5.832l0.059-0.32	c0.09-0.572,0.582-0.992,1.16-0.992h0.73c4.729,0,8.431-1.92,9.513-7.476c0.452-2.321,0.218-4.259-0.978-5.622	C24.022,8.286,23.573,7.945,23.048,7.667z"/><path fill="#222D65" d="M21.754,7.151c-0.189-0.055-0.384-0.105-0.584-0.15c-0.201-0.044-0.407-0.083-0.619-0.117	c-0.742-0.12-1.555-0.177-2.426-0.177h-7.352c-0.181,0-0.353,0.041-0.507,0.115C9.927,6.985,9.675,7.306,9.614,7.699L8.05,17.605	l-0.045,0.289c0.103-0.652,0.66-1.132,1.321-1.132h2.752c5.405,0,9.637-2.195,10.874-8.545c0.037-0.188,0.068-0.371,0.096-0.55	c-0.313-0.166-0.652-0.308-1.017-0.429C21.941,7.208,21.848,7.179,21.754,7.151z"/><path fill="#253B80" d="M9.614,7.699c0.061-0.393,0.313-0.714,0.652-0.876c0.155-0.074,0.326-0.115,0.507-0.115h7.352	c0.871,0,1.684,0.057,2.426,0.177c0.212,0.034,0.418,0.073,0.619,0.117c0.2,0.045,0.395,0.095,0.584,0.15	c0.094,0.028,0.187,0.057,0.278,0.086c0.365,0.121,0.704,0.264,1.017,0.429c0.368-2.347-0.003-3.945-1.272-5.392	C20.378,0.682,17.853,0,14.622,0h-9.38c-0.66,0-1.223,0.48-1.325,1.133L0.01,25.898c-0.077,0.49,0.301,0.932,0.795,0.932h5.791	l1.454-9.225L9.614,7.699z"/></svg>